<svg width="24" height="24" viewBox="0 0 24 24" fill="none" xmlns="http://www.w3.org/2000/svg">
<path d="M2 10.0005C2 7.04238 4.55409 4.73096 7.49752 5.0253L11.403 5.41585C11.8 5.45555 12.2 5.45555 12.597 5.41585L16.5025 5.0253C19.4459 4.73096 22 7.04238 22 10.0005V16C22 19.5932 17.3041 20.9552 15.3815 17.9196C14.0112 15.7559 10.8803 15.6836 9.4116 17.7818L9.12736 18.1878C6.93073 21.3259 2 19.7716 2 15.9411V10.0005Z" stroke="black" stroke-width="2"/>
<path d="M18.0002 11.2758C18.7182 11.2758 19.3002 10.6938 19.3002 9.97578C19.3002 9.25781 18.7182 8.67578 18.0002 8.67578C17.2822 8.67578 16.7002 9.25781 16.7002 9.97578C16.7002 10.6938 17.2822 11.2758 18.0002 11.2758Z" fill="black"/>
<path d="M15.9998 14.1754C16.6625 14.1754 17.1998 13.6381 17.1998 12.9754C17.1998 12.3126 16.6625 11.7754 15.9998 11.7754C15.3371 11.7754 14.7998 12.3126 14.7998 12.9754C14.7998 13.6381 15.3371 14.1754 15.9998 14.1754Z" fill="black"/>
<path d="M8 13.4756V9.47559" stroke="black" stroke-width="2" stroke-linecap="round" stroke-linejoin="round"/>
<path d="M6 11.4756H10" stroke="black" stroke-width="2" stroke-linecap="round" stroke-linejoin="round"/>
</svg>
