<svg width="24" height="24" viewBox="0 0 24 24" fill="none" xmlns="http://www.w3.org/2000/svg">
<path d="M18.1579 9.01888V14.4291C18.1579 15.1085 18.1579 15.4483 18.0266 15.7411C17.9834 15.8374 17.9302 15.9288 17.8678 16.0139C17.6781 16.2728 17.3828 16.4407 16.7921 16.7764L13.3342 18.7418C12.7565 19.0701 12.4677 19.2343 12.1548 19.2667C12.0519 19.2774 11.9481 19.2774 11.8452 19.2667C11.5323 19.2343 11.2435 19.0701 10.6658 18.7418L7.20794 16.7764C6.61722 16.4407 6.32187 16.2728 6.13216 16.0139C6.06981 15.9288 6.01661 15.8374 5.97344 15.7411C5.84211 15.4483 5.84211 15.1085 5.84211 14.4291V9.01888M21 7.64294L13.129 4.01977C12.6361 3.79291 12.3897 3.67948 12.1293 3.65695C12.0432 3.64951 11.9568 3.64951 11.8707 3.65695C11.6103 3.67948 11.3639 3.79291 10.871 4.01977L3 7.64294L10.8235 11.4305C11.3362 11.6787 11.5925 11.8028 11.8649 11.8275C11.9548 11.8356 12.0452 11.8356 12.1351 11.8275C12.4075 11.8028 12.6638 11.6787 13.1765 11.4305L21 7.64294ZM21 7.64294V16.9001C21 17.4877 21 17.7815 20.898 18.0438C20.8644 18.1303 20.8228 18.2135 20.7738 18.2923C20.6251 18.5312 20.3901 18.7075 19.92 19.0601L18.75 19.9376" stroke="black" stroke-width="2" stroke-linecap="round" stroke-linejoin="round"/>
</svg>
