<svg width="24" height="24" viewBox="0 0 24 24" fill="none" xmlns="http://www.w3.org/2000/svg">
<path d="M7.12061 22.9833C6.37868 23.0351 5.63328 22.9663 4.91326 22.7797C3.82914 22.4556 2.87338 21.7997 2.17987 20.9041C1.48637 20.0084 1.08987 18.9178 1.04594 17.7851C1.02304 17.0154 1.02444 16.2452 1.05013 15.4757C1.07632 14.7104 1.79656 14.237 2.41466 14.5913C2.56236 14.6837 2.68171 14.8151 2.75953 14.9712C2.83736 15.1273 2.87065 15.3019 2.85571 15.4757C2.81819 16.3731 2.84479 17.272 2.93533 18.1656C3.06086 18.9834 3.46836 19.7312 4.08703 20.2792C4.70569 20.8272 5.49642 21.1407 6.32179 21.1652H8.52915C9.17868 21.1652 9.56263 21.5147 9.57573 22.0496C9.58882 22.5849 9.19177 22.9345 8.51605 22.9744C8.08757 22.9922 7.6769 22.9833 7.12061 22.9833ZM22.9576 16.7679C23.1398 18.2461 22.7301 19.7364 21.8183 20.9127C21.335 21.5514 20.712 22.0705 19.9972 22.4302C19.2823 22.7899 18.4947 22.9805 17.6948 22.9875H15.4875C15.3611 23.0004 15.2334 22.9875 15.1121 22.9495C14.9908 22.9115 14.8784 22.8493 14.7818 22.7666C14.6852 22.6839 14.6064 22.5824 14.55 22.4683C14.4937 22.3541 14.461 22.2297 14.454 22.1026C14.454 21.5851 14.8694 21.2182 15.4917 21.2182C16.4408 21.1741 17.3947 21.3111 18.3397 21.1206C19.1056 20.9575 19.7957 20.544 20.3016 19.945C20.8075 19.3461 21.1003 18.5957 21.1342 17.8118V15.5554C21.1342 14.9141 21.492 14.5293 22.0174 14.5204C22.5427 14.5115 22.9 14.9183 22.9 15.5465V16.8114L22.9576 16.7679ZM22.9576 7.27836V8.60573C22.9576 8.84447 22.863 9.07342 22.6945 9.24223C22.526 9.41104 22.2975 9.50588 22.0593 9.50588C21.821 9.50588 21.5925 9.41104 21.424 9.24223C21.2556 9.07342 21.1609 8.84447 21.1609 8.60573C21.1384 7.90662 21.1609 7.21222 21.1609 6.51311C21.1736 6.02966 21.0884 5.54865 20.9104 5.09913C20.7323 4.64961 20.4652 4.24091 20.1252 3.89772C19.7851 3.55453 19.3792 3.28397 18.9318 3.10237C18.4845 2.92077 18.0051 2.83192 17.5225 2.84116H15.4388C15.3168 2.85468 15.1934 2.84257 15.0763 2.80562C14.9593 2.76867 14.8512 2.70768 14.759 2.62654C14.6668 2.5454 14.5924 2.4459 14.5407 2.33437C14.489 2.22285 14.4611 2.10175 14.4587 1.97881C14.4492 1.74485 14.5326 1.51665 14.6907 1.34419C14.8488 1.17174 15.0686 1.06909 15.3021 1.05873C16.5781 1.00519 17.8672 0.89077 19.1254 1.27077C20.2424 1.59539 21.2227 2.27757 21.9163 3.21304C22.6099 4.14852 22.9788 5.28583 22.9665 6.45117V7.27836H22.9576ZM1.02394 7.19858C0.90936 5.93036 1.20821 4.65909 1.87566 3.57545C2.33641 2.81968 2.97855 2.19142 3.74359 1.74791C4.50863 1.30439 5.37225 1.05971 6.25579 1.03616C7.0017 0.992069 7.75233 1.03616 8.50296 1.03616C9.16034 1.03616 9.56211 1.42561 9.54482 1.98773C9.52701 2.54934 9.13415 2.83276 8.48096 2.83696C7.82723 2.84116 7.20023 2.83696 6.56013 2.83696C6.06815 2.82353 5.57862 2.91087 5.12151 3.09364C4.6644 3.27641 4.24934 3.55076 3.90175 3.89988C3.55416 4.249 3.28136 4.66555 3.10005 5.12401C2.91874 5.58247 2.83275 6.07319 2.84733 6.56612V8.548C2.86715 8.70414 2.84504 8.86274 2.7833 9.00747C2.72155 9.15219 2.6224 9.27779 2.49607 9.37133C2.36974 9.46486 2.2208 9.52294 2.0646 9.53958C1.9084 9.55622 1.7506 9.53082 1.60746 9.46599C1.43773 9.39177 1.29377 9.26878 1.19382 9.11257C1.09386 8.95635 1.0424 8.77394 1.04594 8.58841C1.04375 8.55171 1.04375 8.5149 1.04594 8.47819L1.02394 7.19858ZM11.9727 18.4795C10.3261 18.452 8.75005 17.8046 7.55799 16.6661C7.39733 16.5406 7.28311 16.3649 7.23348 16.1669C7.18384 15.9689 7.20164 15.76 7.28404 15.5733C7.34756 15.4087 7.46093 15.2681 7.60824 15.1714C7.75554 15.0746 7.92939 15.0265 8.10538 15.0337C8.26131 15.044 8.41348 15.0862 8.55249 15.1577C8.69151 15.2292 8.81442 15.3285 8.91363 15.4494C9.6153 16.0929 10.4999 16.5009 11.444 16.6167C12.3882 16.7324 13.3448 16.55 14.1806 16.095C14.5472 15.8887 14.8893 15.6405 15.2004 15.3565C15.7085 14.9141 16.2156 14.9141 16.5692 15.325C16.6536 15.4226 16.7168 15.5367 16.7548 15.6601C16.7928 15.7835 16.8046 15.9135 16.7896 16.0418C16.7747 16.17 16.7332 16.2938 16.6678 16.405C16.6024 16.5163 16.5146 16.6127 16.4099 16.6881C15.2171 17.8364 13.6269 18.4782 11.9727 18.4795ZM13.4829 11.4458V12.9852C13.4907 13.2071 13.4306 13.4261 13.3106 13.6127C13.1907 13.7994 13.0167 13.9449 12.8119 14.0297C12.4588 14.1887 12.123 14.3745 11.7653 14.5157C11.5583 14.5954 11.329 14.5942 11.1229 14.5124C10.9168 14.4305 10.7489 14.2739 10.6527 14.0738C10.5972 13.9795 10.5615 13.8749 10.5478 13.7663C10.534 13.6577 10.5425 13.5475 10.5727 13.4423C10.6029 13.3372 10.6542 13.2393 10.7234 13.1546C10.7927 13.07 10.8784 13.0004 10.9754 12.95C11.6511 12.6797 11.7124 12.1932 11.6815 11.5875C11.6506 10.9813 11.6815 10.4107 11.6815 9.81764C11.6728 9.69632 11.6892 9.57452 11.7298 9.45986C11.7703 9.3452 11.834 9.24016 11.9169 9.15132C11.9998 9.06248 12.1001 8.99175 12.2116 8.94357C12.323 8.89539 12.4432 8.87079 12.5646 8.87132C12.7969 8.87205 13.02 8.9618 13.1883 9.12215C13.3566 9.2825 13.4573 9.50129 13.4698 9.73367C13.5138 10.3 13.4698 10.8705 13.4698 11.441L13.4829 11.4458ZM8.97072 8.67187V9.27336C8.95404 9.49641 8.85368 9.70486 8.68983 9.85676C8.52598 10.0087 8.3108 10.0928 8.08757 10.0921C7.87499 10.1106 7.66366 10.0449 7.49873 9.90931C7.3338 9.77367 7.22836 9.57877 7.20494 9.36626C7.15005 8.92606 7.1425 8.48123 7.18242 8.03941C7.19397 7.80867 7.29511 7.5916 7.46424 7.43459C7.63337 7.27757 7.85708 7.19306 8.08757 7.1991C8.32688 7.20719 8.55347 7.30904 8.71862 7.48277C8.88377 7.65649 8.97429 7.88821 8.97072 8.12811V8.67659V8.67187ZM16.7986 8.65455V9.25604C16.798 9.4701 16.7159 9.67585 16.569 9.83125C16.422 9.98665 16.2214 10.08 16.0082 10.0921C15.7904 10.1259 15.5679 10.0738 15.3877 9.94679C15.2074 9.81976 15.0832 9.62768 15.0412 9.41088C14.9463 8.92438 14.9463 8.42408 15.0412 7.93758C15.0559 7.70591 15.1608 7.48928 15.3332 7.33428C15.5057 7.17928 15.732 7.0983 15.9634 7.10875C16.1949 7.1192 16.413 7.22026 16.5708 7.39018C16.7287 7.5601 16.8137 7.78531 16.8075 8.01736C16.8232 8.23676 16.8232 8.45667 16.8075 8.67659L16.7986 8.65455Z" fill="black"/>
</svg>
