<svg width="24" height="24" viewBox="0 0 24 24" fill="none" xmlns="http://www.w3.org/2000/svg">
<g clip-path="url(#clip0_1516_2516)">
<mask id="mask0_1516_2516" style="mask-type:luminance" maskUnits="userSpaceOnUse" x="0" y="0" width="24" height="24">
<path d="M24 0H0V24H24V0Z" fill="white"/>
</mask>
<g mask="url(#mask0_1516_2516)">
<path d="M4 11V19C4 20.1046 4.89543 21 6 21H18C19.1046 21 20 20.1046 20 19V11" stroke="black" stroke-width="2" stroke-linecap="round" stroke-linejoin="round"/>
<path d="M6 4.5C6 3.11929 7.11929 2 8.5 2C10.433 2 12 3.567 12 5.5V7H8.5C7.11929 7 6 5.88071 6 4.5Z" stroke="black" stroke-width="2" stroke-linejoin="round"/>
<path d="M18 4.5C18 3.11929 16.8807 2 15.5 2C13.567 2 12 3.567 12 5.5V7H15.5C16.8807 7 18 5.88071 18 4.5Z" stroke="black" stroke-width="2" stroke-linejoin="round"/>
<path d="M3 7H21V11H3V7Z" stroke="black" stroke-width="2" stroke-linecap="round" stroke-linejoin="round"/>
<path d="M12 11V21" stroke="black" stroke-width="2" stroke-linecap="round" stroke-linejoin="round"/>
</g>
</g>
<defs>
<clipPath id="clip0_1516_2516">
<rect width="24" height="24" fill="white"/>
</clipPath>
</defs>
</svg>
