<svg width="24" height="24" viewBox="0 0 24 24" fill="none" xmlns="http://www.w3.org/2000/svg">
<g clip-path="url(#clip0_1516_2623)">
<path d="M0.00288 10.3587C0.07872 9.95452 0.1248 9.54268 0.23328 9.14812C1.1064 5.92108 3.16512 3.84556 6.40944 3.06748C10.8624 2.00044 15.408 4.9486 16.2374 9.44668C16.8619 12.8292 15.7286 15.5988 13.0042 17.7051C12.887 17.7963 12.7094 17.8496 12.5602 17.8515C11.3189 17.8606 10.0776 17.8544 8.83632 17.8515C8.79792 17.8515 8.75952 17.8452 8.68224 17.8404C12.4522 17.5366 15.1656 14.3499 14.9837 10.7369C14.9043 8.98569 14.1489 7.33349 12.8762 6.1279C11.6036 4.9223 9.91295 4.25729 8.16 4.27276C6.41124 4.27931 4.73287 4.96236 3.47651 6.17882C2.22016 7.39527 1.4833 9.05072 1.42032 10.7984C1.27344 14.4512 4.02912 17.5361 7.67856 17.8572H7.31952C6.14736 17.8572 4.97712 17.8601 3.80544 17.8539C3.696 17.8539 3.56784 17.826 3.48336 17.7646C1.60656 16.4048 0.46272 14.588 0.09408 12.2926C0.06624 12.1164 0.03408 11.9408 0.00288 11.7646V10.3587ZM0.00288 19.7782C0.1728 19.3851 0.47184 19.2555 0.89568 19.2569C5.78208 19.2665 10.6685 19.2694 15.5549 19.2555C16.056 19.254 16.5048 19.5315 16.3906 20.2563C16.2226 21.3296 15.3542 22.074 14.2594 22.074C10.2322 22.0755 6.20304 22.074 2.17584 22.074C1.10064 22.074 0.30864 21.4515 0.0432 20.4012C0.0336 20.3643 0.01536 20.3302 0 20.2932C0.00288 20.1219 0.00288 19.9496 0.00288 19.7782Z" fill="black"/>
<path d="M8.19191 16.4504C5.20391 16.449 2.81207 14.0408 2.81543 11.037C2.81831 8.05476 5.23127 5.66916 8.23943 5.67252C11.2078 5.6754 13.5948 8.09028 13.5914 11.0845C13.59 14.0572 11.1804 16.4519 8.19191 16.4504ZM4.81223 11.7013C4.86935 12.0253 5.00615 12.2365 5.27159 12.358C5.54759 12.4861 5.82983 12.4304 6.06407 12.1962C7.15919 11.1057 8.25199 10.0129 9.34247 8.9178C9.64151 8.61732 9.63815 8.19492 9.35303 7.91604C9.07703 7.64436 8.64263 7.65204 8.34599 7.94676C7.25466 9.02999 6.16873 10.1186 5.08823 11.2127C4.96151 11.3404 4.81223 11.5439 4.81223 11.7013ZM7.57079 14.4551C7.79639 14.4071 7.94855 14.2794 8.08871 14.1421C9.16199 13.0861 10.2242 12.0172 11.2879 10.952C11.609 10.6314 11.6306 10.198 11.3484 9.91092C11.0522 9.61188 10.6342 9.63492 10.2953 9.97428L8.72231 11.5472C8.17031 12.0992 7.61687 12.6498 7.06775 13.2032C6.83639 13.436 6.77783 13.7226 6.90743 13.9952C7.03079 14.2578 7.24199 14.3984 7.57079 14.4551ZM19.5454 8.0178C18.859 8.0178 18.1711 8.01444 17.4852 8.02068C17.3494 8.02212 17.2788 7.97748 17.2135 7.85892C16.5521 6.62388 15.883 5.39172 15.2186 4.15668C14.9719 3.69732 15.0766 3.33348 15.5268 3.07428C16.8564 2.3082 18.2714 1.86372 19.8228 1.92564C21.21 1.98084 22.4762 2.42484 23.6556 3.13428C24.0166 3.35172 24.0972 3.73428 23.8812 4.13508C23.3211 5.17785 22.7582 6.21913 22.1926 7.25892C22.0553 7.51188 21.8278 7.85412 21.7514 7.98228C21.5196 8.0178 21.2071 8.0178 20.9268 8.0178C20.466 8.01924 20.0066 8.0178 19.5454 8.0178ZM17.7751 12.9488H21.3137V13.174C21.3137 15.5164 21.3151 17.8583 21.3122 20.1988C21.3103 21.1069 20.791 21.8178 19.9908 22.0199C18.8374 22.3112 17.7794 21.4664 17.7751 20.2372C17.7689 18.5197 17.7737 16.8018 17.7737 15.0858V13.2124C17.7751 13.1293 17.7751 13.0463 17.7751 12.9488ZM17.7934 9.42708H21.2935V11.5151H17.7934V9.42708Z" fill="black"/>
</g>
<defs>
<clipPath id="clip0_1516_2623">
<rect width="24" height="24" fill="white"/>
</clipPath>
</defs>
</svg>
