<svg width="24" height="24" viewBox="0 0 24 24" fill="none" xmlns="http://www.w3.org/2000/svg">
<path d="M10.3407 9.5C9.53234 8.96254 8.99959 8.04349 8.99959 7C8.99959 5.34315 10.3427 4 11.9996 4C13.5949 4 14.8994 5.24523 14.9941 6.81674M9.00509 12.1867C8.13546 12.618 7.07316 12.6199 6.16947 12.0981C4.7346 11.2697 4.24297 9.43495 5.0714 8.00007C5.86906 6.61848 7.59969 6.11139 9.00801 6.81513M10.664 14.6867C10.6027 15.6555 10.0731 16.5764 9.16944 17.0981C7.73456 17.9266 5.89979 17.4349 5.07137 16.0001C4.27371 14.6185 4.69987 12.8662 6.01349 11.9984M13.3352 9.31328C13.3965 8.3445 13.926 7.4236 14.8297 6.90186C16.2646 6.07343 18.0994 6.56505 18.9278 7.99993C19.7254 9.38152 19.2993 11.1338 17.9857 12.0016M14.9941 11.8133C15.8637 11.382 16.9261 11.3801 17.8297 11.9019C19.2646 12.7303 19.7562 14.5651 18.9278 15.9999C18.1302 17.3815 16.3995 17.8886 14.9912 17.1849M13.6585 14.5C14.4669 15.0375 14.9996 15.9565 14.9996 17C14.9996 18.6569 13.6565 20 11.9996 20C10.4043 20 9.09982 18.7548 9.00513 17.1833M14.9996 12C14.9996 13.6569 13.6564 15 11.9996 15C10.3427 15 8.99959 13.6569 8.99959 12C8.99959 10.3431 10.3427 9 11.9996 9C13.6564 9 14.9996 10.3431 14.9996 12Z" stroke="black" stroke-width="2" stroke-linecap="round" stroke-linejoin="round"/>
</svg>
