<svg width="24" height="24" viewBox="0 0 24 24" fill="none" xmlns="http://www.w3.org/2000/svg">
<path d="M16 9H8C5.79086 9 4 10.7909 4 13V17C4 19.2091 5.79086 21 8 21H16C18.2091 21 20 19.2091 20 17V13C20 10.7909 18.2091 9 16 9Z" stroke="black" stroke-width="2"/>
<path d="M12 16V14" stroke="black" stroke-width="2" stroke-linecap="round" stroke-linejoin="round"/>
<path d="M14.4616 5.28519C14.7773 5.73836 15.4006 5.84981 15.8537 5.53412C16.3069 5.21843 16.4183 4.59515 16.1027 4.14199L14.4616 5.28519ZM8.08231 3.89329C7.73915 4.32602 7.81176 4.95501 8.2445 5.29817C8.67724 5.64133 9.30622 5.56871 9.64938 5.13597L8.08231 3.89329ZM9 9V7H7V9H9ZM9 7C9 5.34315 10.3431 4 12 4V2C9.23858 2 7 4.23858 7 7H9ZM16.1027 4.14199C15.5063 3.286 14.6572 2.63796 13.6742 2.28864L13.0045 4.17319C13.5943 4.38278 14.1038 4.7716 14.4616 5.28519L16.1027 4.14199ZM13.6742 2.28864C12.6913 1.93932 11.6236 1.90622 10.6209 2.19396L11.1725 4.11638C11.7742 3.94373 12.4148 3.96359 13.0045 4.17319L13.6742 2.28864ZM10.6209 2.19396C9.61813 2.48171 8.7305 3.07589 8.08231 3.89329L9.64938 5.13597C10.0383 4.64553 10.5709 4.28902 11.1725 4.11638L10.6209 2.19396Z" fill="black"/>
</svg>
