<svg width="24" height="24" viewBox="0 0 24 24" fill="none" xmlns="http://www.w3.org/2000/svg">
<path d="M12.8748 20H12.8573C12.7523 19.9994 12.6496 19.9699 12.5606 19.9143C12.4716 19.8587 12.3999 19.7792 12.3534 19.685L10.3949 15.6565L14.4993 9.49938L8.34346 13.607L4.31525 11.6484C4.24902 11.6162 4.18979 11.571 4.14094 11.5159C4.09209 11.4607 4.05437 11.3965 4.03034 11.3269C4.00632 11.2572 3.9966 11.1836 4.00105 11.1101C4.0055 11.0365 4.02446 10.9646 4.05671 10.8984C4.11848 10.7744 4.22292 10.6769 4.35114 10.6244L18.2301 5.04013C18.3322 4.99906 18.4447 4.98947 18.5524 5.01156C18.6602 5.03365 18.7589 5.08675 18.8366 5.16464C18.9142 5.24254 18.9672 5.34175 18.9889 5.44957C19.0107 5.5574 19.0003 5.66921 18.9589 5.77113L13.3773 19.6513C13.3354 19.7513 13.2663 19.8371 13.1773 19.8989C13.0883 19.9607 12.9831 19.9958 12.8748 20Z" fill="black"/>
</svg>
