<svg width="24" height="24" viewBox="0 0 24 24" fill="none" xmlns="http://www.w3.org/2000/svg">
<path d="M20.4906 12.8794V20.8417C20.4906 22.3345 19.7898 23.0401 18.3138 23.0401H5.49347C4.09187 23.0401 3.36035 22.3129 3.36035 20.9026V4.76505C3.36035 3.30249 4.05683 2.60985 5.53715 2.60985H7.15619C7.31586 2.6304 7.47734 2.58917 7.60761 2.49459C7.73788 2.40001 7.82709 2.25923 7.85699 2.10105C7.90022 1.89506 8.01997 1.71313 8.19208 1.59197C8.36419 1.47082 8.57585 1.41946 8.78435 1.44825H15.058C15.276 1.42089 15.4963 1.47698 15.6747 1.60526C15.8531 1.73354 15.9764 1.92453 16.0199 2.13993C16.0446 2.28404 16.1241 2.41301 16.2417 2.49981C16.3594 2.58661 16.5061 2.62449 16.6511 2.60553H18.4924C19.7461 2.60553 20.482 3.35001 20.4863 4.64745C20.4949 7.39449 20.4906 10.1545 20.4906 12.8794ZM4.90163 12.8271V20.6631C4.90163 21.5079 4.95347 21.5598 5.77187 21.5598H17.9437C18.932 21.5598 18.9536 21.5598 18.9536 20.5676V4.55625C18.9536 4.25577 18.8192 4.08153 18.4967 4.08153H16.5464C16.4783 4.07578 16.4097 4.08526 16.3457 4.1093C16.2817 4.13333 16.2238 4.17131 16.1763 4.22048C16.1288 4.26965 16.0928 4.32878 16.071 4.39358C16.0492 4.45838 16.042 4.52723 16.0501 4.59513V5.13945C16.0501 6.07545 15.7976 6.32793 14.8616 6.33225H9.55523C7.90499 6.33225 7.89635 6.33225 7.81379 4.66041C7.81379 4.25577 7.63091 4.06857 7.22195 4.07721H5.76323C4.93619 4.07721 4.89251 4.11225 4.89251 4.92201C4.89251 7.55721 4.89539 10.1924 4.90115 12.8276L4.90163 12.8271ZM11.9495 4.79577H13.3727C14.5612 4.79577 14.5439 4.79577 14.5309 3.61161C14.5309 3.14985 14.3524 2.96697 13.8954 2.97609H10.4999C9.36803 2.97609 9.31139 2.97609 9.35891 4.18185C9.35891 4.61721 9.53747 4.80873 9.97715 4.79577C10.6218 4.78233 11.2832 4.79577 11.9495 4.79577Z" fill="black"/>
<path d="M13.6032 14.6858H12.0403C11.8291 14.7017 11.62 14.6346 11.4574 14.4989C11.2949 14.3631 11.1916 14.1693 11.1696 13.9586C11.1694 13.8546 11.1907 13.7517 11.232 13.6562C11.2733 13.5608 11.3338 13.4749 11.4098 13.4038C11.4857 13.3328 11.5755 13.2781 11.6735 13.2432C11.7715 13.2084 11.8756 13.1941 11.9794 13.2012C13.0594 13.1666 14.1346 13.1666 15.2141 13.2012C15.3182 13.1939 15.4227 13.2085 15.5208 13.244C15.619 13.2795 15.7086 13.3351 15.784 13.4073C15.8594 13.4795 15.9189 13.5666 15.9586 13.6631C15.9983 13.7596 16.0174 13.8634 16.0147 13.9677C15.9885 14.1816 15.8794 14.3765 15.7109 14.5108C15.5425 14.6451 15.328 14.7079 15.1138 14.6858C14.6088 14.6988 14.1082 14.6906 13.6032 14.6858ZM13.5989 18.0381H12.084C11.579 18.0381 11.2133 17.7199 11.183 17.298C11.1838 17.1931 11.2061 17.0895 11.2486 16.9936C11.291 16.8978 11.3528 16.8116 11.4299 16.7406C11.5071 16.6696 11.598 16.6152 11.6971 16.5807C11.7961 16.5463 11.9012 16.5326 12.0058 16.5405C13.068 16.5098 14.1341 16.5098 15.1968 16.5405C15.3013 16.5321 15.4063 16.5454 15.5053 16.5797C15.6044 16.614 15.6952 16.6684 15.7721 16.7396C15.849 16.8108 15.9102 16.8972 15.952 16.9933C15.9938 17.0895 16.0151 17.1932 16.0147 17.298C15.999 17.5081 15.9011 17.7036 15.7422 17.842C15.5834 17.9805 15.3764 18.0507 15.1661 18.0377H13.5989V18.0381ZM13.6464 9.86662H15.2141C15.7363 9.86662 16.0325 10.1541 16.0109 10.5545C16.0144 10.6553 15.9973 10.7559 15.9606 10.8499C15.9239 10.9439 15.8683 11.0294 15.7974 11.1012C15.7264 11.1729 15.6414 11.2294 15.5478 11.2671C15.4542 11.3048 15.3539 11.323 15.253 11.3205H11.9621C11.8629 11.3265 11.7635 11.3119 11.6702 11.2777C11.5769 11.2436 11.4917 11.1905 11.4198 11.1219C11.3479 11.0533 11.2909 10.9706 11.2524 10.879C11.2139 10.7874 11.1947 10.6889 11.196 10.5895C11.1696 10.1541 11.4792 9.89734 11.9707 9.8839C12.5323 9.85798 13.0886 9.86662 13.6464 9.86662ZM9.324 10.6154C9.31394 10.8134 9.22577 10.9993 9.07883 11.1324C8.93189 11.2655 8.73818 11.3349 8.54016 11.3253C8.35516 11.3075 8.18295 11.223 8.05561 11.0877C7.92827 10.9523 7.85448 10.7752 7.848 10.5895C7.84986 10.4906 7.87223 10.3932 7.91372 10.3034C7.95521 10.2137 8.01489 10.1335 8.089 10.068C8.1631 10.0025 8.25001 9.95317 8.3442 9.92304C8.43839 9.89292 8.53781 9.88269 8.63616 9.89302C8.8213 9.90305 8.99561 9.98342 9.12346 10.1177C9.25131 10.252 9.32305 10.43 9.324 10.6154ZM9.324 13.937C9.31227 14.1254 9.23328 14.3033 9.10139 14.4384C8.96951 14.5735 8.79351 14.6567 8.60544 14.6729C8.40745 14.6707 8.21798 14.592 8.07677 14.4532C7.93556 14.3144 7.85357 14.1263 7.848 13.9284C7.84556 13.8337 7.86213 13.7394 7.89673 13.6512C7.93132 13.563 7.98325 13.4827 8.04943 13.4149C8.1156 13.3471 8.1947 13.2933 8.28204 13.2566C8.36938 13.2198 8.46318 13.201 8.55792 13.2012C8.65678 13.1982 8.75524 13.215 8.84753 13.2506C8.93983 13.2862 9.0241 13.3398 9.09543 13.4083C9.16676 13.4768 9.22372 13.5588 9.26296 13.6496C9.30221 13.7404 9.32296 13.8381 9.324 13.937ZM9.31536 17.2629C9.31234 17.4524 9.2404 17.6342 9.113 17.7744C8.98559 17.9146 8.81147 18.0036 8.6232 18.0247C8.42518 18.0272 8.23388 17.9529 8.08944 17.8174C7.945 17.6819 7.85864 17.4958 7.84848 17.298C7.83825 17.1971 7.84898 17.0952 7.88001 16.9986C7.91104 16.9021 7.96169 16.813 8.02878 16.7369C8.09587 16.6609 8.17796 16.5995 8.26989 16.5567C8.36182 16.5139 8.46161 16.4905 8.56299 16.4881C8.66438 16.4857 8.76517 16.5042 8.85904 16.5426C8.95291 16.581 9.03783 16.6384 9.10848 16.7111C9.17913 16.7839 9.23397 16.8705 9.26957 16.9654C9.30518 17.0604 9.32076 17.1617 9.31536 17.2629Z" fill="black"/>
</svg>
