<svg xmlns="http://www.w3.org/2000/svg" width="50" height="50" viewBox="0 0 50 50">
  <g id="ico_Contact_Us01_on" data-name="ico_Contact Us01_on" transform="translate(-16 -187)">
    <rect id="bg_channel_on" width="50" height="50" rx="16" transform="translate(16 187)" fill="#111"/>
    <rect id="base" width="32" height="32" transform="translate(25 196)" fill="red" opacity="0.004"/>
    <path id="합치기_87" data-name="합치기 87" d="M5397.307,22820.658a27.169,27.169,0,0,1-13.036-13.105,11.6,11.6,0,0,1-1.249-5.791,5.037,5.037,0,0,1,3.173-4.719,2.73,2.73,0,0,1,3.282.893c.928,1.268,1.833,2.561,2.7,3.873a2.758,2.758,0,0,1-.676,3.746c-.413.314-.842.6-1.306.928a34.807,34.807,0,0,0,8.322,8.322c.258-.373.51-.717.745-1.072a2.9,2.9,0,0,1,2.033-1.328,2.622,2.622,0,0,1,1.942.441c1.271.865,2.537,1.74,3.786,2.641a2.723,2.723,0,0,1,.928,3.328,4.976,4.976,0,0,1-4.411,3.133,9.721,9.721,0,0,1-.978.049A12.022,12.022,0,0,1,5397.307,22820.658Zm2.154-13.953V22805h-.2a3,3,0,0,1-3-3v-7a3,3,0,0,1,3-3h11a3,3,0,0,1,3,3v7a3,3,0,0,1-3,3h-5.544l-4.548,2.16a.49.49,0,0,1-.212.049A.5.5,0,0,1,5399.46,22806.705Zm8.093-8a1.2,1.2,0,1,0,1.2-1.2A1.2,1.2,0,0,0,5407.553,22798.7Zm-3.992,0a1.2,1.2,0,1,0,1.2-1.2A1.2,1.2,0,0,0,5403.562,22798.7Zm-4,0a1.2,1.2,0,1,0,1.2-1.2A1.2,1.2,0,0,0,5399.558,22798.7Z" transform="translate(-5357.258 -22594.998)" fill="#fff"/>
  </g>
</svg>
