<svg xmlns="http://www.w3.org/2000/svg" width="50" height="50" viewBox="0 0 50 50">
    <defs>
        <clipPath id="b170dln8ca">
            <path data-name="사각형 39930" style="fill:none" d="M0 0h30v25H0z"/>
        </clipPath>
    </defs>
    <g transform="translate(22544 -6782)">
        <rect width="50" height="50" rx="16" transform="translate(-22544 6782)" style="fill:#111"/>
        <g data-name="그룹 73698">
            <g data-name="그룹 73697" style="clip-path:url(#b170dln8ca)" transform="translate(-22534 6795)">
                <path data-name="패스 13222" d="M29.375 0H.625A.625.625 0 0 0 0 .625V5h30V.625A.625.625 0 0 0 29.375 0m-25 3.75A.625.625 0 1 1 5 3.125a.625.625 0 0 1-.625.625m2.5 0a.625.625 0 1 1 .625-.625.625.625 0 0 1-.625.625m2.5 0A.625.625 0 1 1 10 3.125a.625.625 0 0 1-.625.625" style="fill:#fff"/>
                <path data-name="패스 13223" d="M0 6.25v16.875A1.877 1.877 0 0 0 1.875 25h26.25A1.877 1.877 0 0 0 30 23.125V6.25zm20.45 16.781a.623.623 0 0 1-.612.509.682.682 0 0 1-.118-.011.624.624 0 0 1-.5-.73 2.755 2.755 0 0 0 .039-.509 4.262 4.262 0 1 0-8.524 0 2.844 2.844 0 0 0 .039.509.623.623 0 0 1-.5.73.629.629 0 0 1-.73-.5 4.014 4.014 0 0 1-.061-.741 5.512 5.512 0 1 1 11.024 0 3.93 3.93 0 0 1-.061.741m7.675-.116a.625.625 0 1 1-1.25 0V20.74h-2.328a.635.635 0 0 1-.225-.045 1.119 1.119 0 0 1-.182-.112.64.64 0 0 1-.086-.094.47.47 0 0 1-.05-.069.569.569 0 0 1-.057-.134c0-.01-.01-.019-.013-.03a8.892 8.892 0 0 0-1.189-2.834c-.011-.018-.012-.038-.022-.057a.575.575 0 0 1-.044-.113.7.7 0 0 1-.023-.118.618.618 0 0 1 0-.114.552.552 0 0 1 .024-.121.58.58 0 0 1 .044-.1.554.554 0 0 1 .073-.108.477.477 0 0 1 .031-.047l1.676-1.66-2.19-2.19-1.656 1.665a.585.585 0 0 1-.1.07.542.542 0 0 1-.339.115.613.613 0 0 1-.291-.085c-.014-.007-.029 0-.043-.012a8.884 8.884 0 0 0-2.836-1.189c-.018-.005-.031-.017-.049-.023a.583.583 0 0 1-.114-.051.656.656 0 0 1-.1-.065.613.613 0 0 1-.081-.088.559.559 0 0 1-.065-.1.622.622 0 0 1-.043-.111.549.549 0 0 1-.024-.122.5.5 0 0 1-.011-.053v-2.33h-3.1v2.332a.5.5 0 0 1-.011.053.613.613 0 0 1-.024.122.709.709 0 0 1-.043.111.559.559 0 0 1-.065.1.62.62 0 0 1-.082.088.6.6 0 0 1-.1.065.583.583 0 0 1-.114.051c-.018.006-.031.018-.05.023a8.878 8.878 0 0 0-2.835 1.189c-.014.008-.03.005-.043.012a.616.616 0 0 1-.291.085h-.005a.619.619 0 0 1-.268-.068.545.545 0 0 1-.071-.047.592.592 0 0 1-.1-.07l-1.662-1.667-2.194 2.19 1.664 1.657a.476.476 0 0 1 .031.047.6.6 0 0 1 .073.108.58.58 0 0 1 .044.1.552.552 0 0 1 .024.121.542.542 0 0 1 0 .114.634.634 0 0 1-.067.232.433.433 0 0 1-.022.056 8.938 8.938 0 0 0-1.189 2.834.268.268 0 0 1-.012.03.641.641 0 0 1-.1.2.64.64 0 0 1-.086.094.728.728 0 0 1-.091.062.674.674 0 0 1-.092.05.631.631 0 0 1-.225.045H3.125v2.175a.625.625 0 0 1-1.25 0v-2.8a.625.625 0 0 1 .625-.619H5a10.128 10.128 0 0 1 .961-2.29l-1.783-1.772a.62.62 0 0 1-.184-.441.632.632 0 0 1 .183-.444l3.076-3.076a.627.627 0 0 1 .442-.183.624.624 0 0 1 .441.184l1.774 1.784a10.143 10.143 0 0 1 2.289-.959V9.79a.625.625 0 0 1 .625-.625h4.347a.625.625 0 0 1 .625.625v2.5a10.143 10.143 0 0 1 2.289.959l1.773-1.784a.628.628 0 0 1 .442-.184.625.625 0 0 1 .442.183l3.077 3.076a.632.632 0 0 1 .183.444.617.617 0 0 1-.185.441L24.038 17.2A10.125 10.125 0 0 1 25 19.49h2.5a.625.625 0 0 1 .625.625z" style="fill:#fff"/>
            </g>
        </g>
    </g>
</svg>
