<svg xmlns="http://www.w3.org/2000/svg" width="50" height="50" viewBox="0 0 50 50">
  <g id="ico_orchestra_off" transform="translate(9 9)">
    <rect id="bg_channel_off" width="50" height="50" rx="16" transform="translate(-9 -9)" fill="none"/>
    <rect id="guide" width="32" height="32" fill="none" opacity="0.15"/>
    <path id="제외_1" data-name="제외 1" d="M13707.419,17772.9h0a14.041,14.041,0,0,0,1.762-4.865,14.438,14.438,0,0,0-.037-5.158,16.105,16.105,0,0,0-2.646-6.15c-.014-.025-1.5-2.68-6.33-7.592a.667.667,0,0,1,0-.857.6.6,0,0,1,.353-.127.648.648,0,0,1,.478.248,16.452,16.452,0,0,0,2.983,3.35,14.9,14.9,0,0,0,3.613,2.32,12.362,12.362,0,0,0,4.929,1.092h.115a13.287,13.287,0,0,0,4.079-.746,15.825,15.825,0,0,0,6.841-4.619l.429-.43a.918.918,0,0,1,.009-.9.92.92,0,0,1,1.258-.348l.179.16.143.152a.926.926,0,0,1-.779,1.418.9.9,0,0,1-.22-.027,39.279,39.279,0,0,0-6.62,9.875,38.32,38.32,0,0,1-2.766,4.945A29.316,29.316,0,0,1,13707.419,17772.9Zm2.27-17.463v4l3-2h0Zm3,2,3,2v-4Z" transform="translate(-13698.689 -17741.439)" fill="#5d6167" stroke="rgba(0,0,0,0)" stroke-width="1"/>
    <path id="패스_40" data-name="패스 40" d="M69.833,28.83a3.136,3.136,0,1,0-3.13-3.136,3.133,3.133,0,0,0,3.13,3.136" transform="translate(-55.656 -15.985)" fill="#5d6167"/>
    <path id="패스_41" data-name="패스 41" d="M.355,1.3C.485,3.036.48,8.24.48,8.24H0S.031,3.036.1,1.3.226-.434.355,1.3Z" transform="translate(30.342 0) rotate(30)" fill="#5d6167"/>
    <ellipse id="타원_6" data-name="타원 6" cx="1" cy="0.5" rx="1" ry="0.5" transform="translate(25 7)" fill="#5d6167"/>
  </g>
</svg>
