<svg xmlns="http://www.w3.org/2000/svg" width="50" height="50" viewBox="0 0 50 50">
  <g id="ico_cloud_api_off" data-name="ico_cloud api_off" transform="translate(-16 -187)">
    <rect id="bg_channel_off" width="50" height="50" rx="16" transform="translate(16 187)" fill="none"/>
    <rect id="base" width="32" height="32" transform="translate(24 196)" fill="none" opacity="0.424"/>
    <path id="합치기_19" data-name="합치기 19" d="M13733.5,17797c-.079,0-.157,0-.235-.006s-.176.006-.265.006h-6a9.506,9.506,0,1,1,11.8-13.561,3.5,3.5,0,0,1,5.207,3.059v1.5h.5a4.5,4.5,0,0,1,0,9Z" transform="translate(-13695 -17581.002)" fill="#5d6167"/>
    <g id="타원_131" data-name="타원 131" transform="translate(37 220)" fill="none" stroke="#5d6167" stroke-width="2">
      <circle cx="3" cy="3" r="3" stroke="none"/>
      <circle cx="3" cy="3" r="2" fill="none"/>
    </g>
    <g id="타원_132" data-name="타원 132" transform="translate(49.003 220)" fill="none" stroke="#5d6167" stroke-width="2">
      <circle cx="3" cy="3" r="3" stroke="none"/>
      <circle cx="3" cy="3" r="2" fill="none"/>
    </g>
    <g id="타원_137" data-name="타원 137" transform="translate(24.997 220)" fill="none" stroke="#5d6167" stroke-width="2">
      <circle cx="3" cy="3" r="3" stroke="none"/>
      <circle cx="3" cy="3" r="2" fill="none"/>
    </g>
    <rect id="사각형_1032" data-name="사각형 1032" width="2" height="6" transform="translate(39 216)" fill="#5d6167"/>
    <rect id="사각형_1033" data-name="사각형 1033" width="10" height="2" transform="translate(41 222)" fill="#5d6167"/>
    <rect id="사각형_1034" data-name="사각형 1034" width="10" height="2" transform="translate(29 222)" fill="#5d6167"/>
  </g>
</svg>
