<svg xmlns="http://www.w3.org/2000/svg" width="50" height="50" viewBox="0 0 50 50">
  <g id="ico_Contact_Us01_off" data-name="ico_Contact Us01_off" transform="translate(-16 -187)">
    <rect id="bg_channel_on" width="50" height="50" rx="16" transform="translate(16 187)" fill="#111" opacity="0"/>
    <rect id="base" width="32" height="32" transform="translate(25 196)" fill="red" opacity="0.004"/>
    <path id="합치기_86" data-name="합치기 86" d="M5486.2,22806.705V22805h-.2a3,3,0,0,1-3-3v-7a3,3,0,0,1,3-3h11a3,3,0,0,1,3,3v7a3,3,0,0,1-3,3h-5.546l-4.539,2.158a.5.5,0,0,1-.716-.453Zm8.094-8a1.2,1.2,0,1,0,1.2-1.2A1.2,1.2,0,0,0,5494.293,22798.7Zm-4,0a1.2,1.2,0,1,0,1.2-1.2A1.2,1.2,0,0,0,5490.3,22798.7Zm-4,0a1.2,1.2,0,1,0,1.2-1.2A1.2,1.2,0,0,0,5486.3,22798.7Z" transform="translate(-5443.998 -22594.998)" fill="#5d6167"/>
    <path id="패스_4354" data-name="패스 4354" d="M7.2,9.659a34.843,34.843,0,0,0,8.323,8.32c.258-.369.508-.717.747-1.072A2.885,2.885,0,0,1,18.3,15.579a2.647,2.647,0,0,1,1.946.44c1.27.87,2.538,1.744,3.786,2.644a2.728,2.728,0,0,1,.926,3.328,4.968,4.968,0,0,1-4.41,3.132,11.474,11.474,0,0,1-6.238-1.289,27.15,27.15,0,0,1-13.036-13.1,11.607,11.607,0,0,1-1.248-5.8A5.039,5.039,0,0,1,3.195.219a2.733,2.733,0,0,1,3.283.892q1.394,1.905,2.7,3.873A2.763,2.763,0,0,1,8.5,8.731c-.411.313-.842.6-1.308.929" transform="translate(25.742 201.826)" fill="#5d6167"/>
  </g>
</svg>
