<svg xmlns="http://www.w3.org/2000/svg" width="50" height="50" viewBox="0 0 50 50">
    <defs>
        <clipPath id="g6mpzh964a">
            <path data-name="사각형 42343" style="fill:#fff" d="M0 0h29.989v30H0z"/>
        </clipPath>
    </defs>
    <g transform="translate(-15.998 -187)">
        <rect width="50" height="50" rx="16" transform="translate(15.998 187)" style="fill:#111"/>
        <path transform="translate(24.998 196)" style="fill:none;opacity:.275" d="M0 0h32v32H0z"/>
        <g data-name="그룹 76804" style="clip-path:url(#g6mpzh964a)" transform="translate(26.004 197)">
            <path data-name="패스 14673" d="M2.483 53.665c-.377-.538-.781-1.042-1.107-1.592a9.192 9.192 0 0 1 1.539-11.54 12.824 12.824 0 0 1 7.319-3.542 13.665 13.665 0 0 1 9.826 2.128 9.987 9.987 0 0 1 4.332 5.8 8.629 8.629 0 0 1-1.441 7.6 12.485 12.485 0 0 1-8.565 5.124 7.976 7.976 0 0 1-1.2.073q-6.087.007-12.175.005a.965.965 0 0 1-.828-.346.877.877 0 0 1 .088-1.175q1.037-1.192 2.08-2.378c.05-.058.1-.118.132-.158m6.3-6.587a1.754 1.754 0 1 0-1.761 1.743 1.76 1.76 0 0 0 1.758-1.742m3.568-1.765a1.753 1.753 0 1 0 1.759 1.741 1.758 1.758 0 0 0-1.759-1.741m7.086 1.765a1.754 1.754 0 1 0-1.759 1.742 1.76 1.76 0 0 0 1.759-1.742" transform="translate(0 -27.72)" style="fill:#fff"/>
            <path data-name="패스 14674" d="M28.831 8.193c.207-.621.353-1.194.584-1.732a9.683 9.683 0 0 1 4.543-4.823 12.869 12.869 0 0 1 12.136-.231 9.543 9.543 0 0 1 4.975 5.2 8.289 8.289 0 0 1-1.462 8.629c-.06.076-.123.149-.2.246l.835.978 1.163 1.353a.893.893 0 0 1-.7 1.531c-.837-.006-1.674 0-2.507 0-.082-.636-.125-1.258-.245-1.865a11.333 11.333 0 0 0-3.573-6.231 14.629 14.629 0 0 0-7.98-3.722 16.083 16.083 0 0 0-7.308.6c-.053.017-.108.027-.264.065" transform="translate(-21.703)" style="fill:#fff"/>
        </g>
    </g>
</svg>
