<svg xmlns="http://www.w3.org/2000/svg" width="50" height="50" viewBox="0 0 50 50">
    <g transform="translate(-15.998 -187)">
        <rect width="50" height="50" rx="16" transform="translate(15.998 187)" style="fill:#111"/>
        <path transform="translate(24.998 196)" style="fill:none;opacity:.275" d="M0 0h32v32H0z"/>
        <g data-name="그룹 73248">
            <g data-name="그룹 73249">
                <path data-name="패스 13016" d="M10.815 10.335a13.874 13.874 0 0 0-.166-.428 1.546 1.546 0 0 0-.162-.3.75.75 0 0 0-.254-.228.885.885 0 0 0-.775 0 .743.743 0 0 0-.252.228 1.849 1.849 0 0 0-.182.362c-.057.148-.106.269-.144.372l-1.412 3.583-.015.038v.012c-.047.121-.084.216-.1.286a.741.741 0 0 0-.038.232.473.473 0 0 0 .161.351.532.532 0 0 0 .365.157.417.417 0 0 0 .356-.146 2.45 2.45 0 0 0 .264-.559l.264-.707h2.246l.264.693c.029.074.067.164.125.3a1 1 0 0 0 .139.248.439.439 0 0 0 .158.128.474.474 0 0 0 .226.049.542.542 0 0 0 .386-.159.5.5 0 0 0 .159-.354 1.779 1.779 0 0 0-.172-.591zm-1.8 2.412.816-2.276.833 2.275H9.018z" transform="translate(28.167 197.142)" style="fill:#fff"/>
                <path data-name="패스 13017" d="M13.465 9.291a.536.536 0 0 0-.41.168.732.732 0 0 0-.157.51v4.352a.741.741 0 0 0 .159.51.536.536 0 0 0 .408.172.553.553 0 0 0 .417-.172.729.729 0 0 0 .159-.514V9.965a.716.716 0 0 0-.159-.51.546.546 0 0 0-.417-.164" transform="translate(28.854 197.142)" style="fill:#fff"/>
                <path data-name="패스 13018" d="M28.156 20.232c-1.213-2.234-2.43-4.467-3.634-6.706a1.462 1.462 0 0 1-.167-.661 14.764 14.764 0 0 0-.3-3.127A12.192 12.192 0 0 0 10.11.2a11.938 11.938 0 0 0-8.922 6.821 13.235 13.235 0 0 0-.75 8.965c.738 3.293 1.6 6.559 2.409 9.835a22.455 22.455 0 0 1 .759 4.313v.886a.983.983 0 0 0 .982.98h14.651a.98.98 0 0 0 .979-.966h.006v-1.64c.5 0 .959.008 1.415 0a4.031 4.031 0 0 0 .8-.064 2.791 2.791 0 0 0 2.208-2.851c.007-1.822 0-3.644 0-5.465v-.419h3.694c-.075-.149-.127-.257-.184-.362m-9.106-9.8h1.142a.571.571 0 0 1 0 1.142H19.05zm-5.138-5.139a.57.57 0 1 1 1.141 0v1.142h-1.141zm-2.284-.57a.571.571 0 1 1 1.142 0v1.712h-1.142zm-2.284.57a.571.571 0 0 1 1.142 0v1.142H9.345zm-4 10.847H4.207a.571.571 0 1 1 0-1.142h1.142zm0-2.283H3.636a.571.571 0 0 1 0-1.142h1.713zm0-2.284H4.207a.571.571 0 1 1 0-1.142h1.142zm5.137 9.7a.571.571 0 0 1-1.142 0v-1.137h1.142zm2.284.57a.571.571 0 1 1-1.142 0v-1.707h1.146zm2.284-.57a.571.571 0 0 1-1.142 0v-1.137h1.142zm2.855-4.567A2.288 2.288 0 0 1 15.625 19H8.774a2.287 2.287 0 0 1-2.283-2.284V9.862a2.287 2.287 0 0 1 2.283-2.284h6.852a2.288 2.288 0 0 1 2.284 2.284zm2.283-.57H19.05V15h1.142a.571.571 0 0 1 0 1.142m.57-2.284H19.05v-1.142h1.712a.571.571 0 0 1 0 1.142" transform="translate(27.27 196)" style="fill:#fff"/>
            </g>
        </g>
    </g>
</svg>
