<svg xmlns="http://www.w3.org/2000/svg" width="50" height="50" viewBox="0 0 50 50">
  <g id="ico_AI_service_off" data-name="ico_AI service_off" transform="translate(-15.998 -187)">
    <rect id="bg_channel_off" width="50" height="50" rx="16" transform="translate(15.998 187)" fill="none"/>
    <path id="합치기_20" data-name="합치기 20" d="M13733,17858v-2a1,1,0,1,1,2,0v2Zm-4,0v-3a1,1,0,1,1,2,0v3Zm-4,0v-2a1,1,0,1,1,2,0v2Z" transform="translate(-13690 -17658)" fill="#5d6167"/>
    <path id="합치기_23" data-name="합치기 23" d="M13733,17858v-2a1,1,0,1,1,2,0v2Zm-4,0v-3a1,1,0,1,1,2,0v3Zm-4,0v-2a1,1,0,1,1,2,0v2Z" transform="translate(17909.998 -13518) rotate(90)" fill="#5d6167"/>
    <path id="합치기_21" data-name="합치기 21" d="M4,3V0H6V3A1,1,0,1,1,4,3ZM8,2V0h2V2A1,1,0,1,1,8,2ZM0,2V0H2V2A1,1,0,1,1,0,2Z" transform="translate(34.999 223.998)" fill="#5d6167"/>
    <path id="합치기_22" data-name="합치기 22" d="M4,3V0H6V3A1,1,0,1,1,4,3ZM8,2V0h2V2A1,1,0,1,1,8,2ZM0,2V0H2V2A1,1,0,1,1,0,2Z" transform="translate(28 206.999) rotate(90)" fill="#5d6167"/>
    <path id="제외_2" data-name="제외 2" d="M13740,17874h-12a4.006,4.006,0,0,1-4-4v-12a4.006,4.006,0,0,1,4-4h12a4.006,4.006,0,0,1,4,4v12A4.006,4.006,0,0,1,13740,17874Zm-1.01-15a.942.942,0,0,0-.718.295,1.282,1.282,0,0,0-.273.893v7.623a1.291,1.291,0,0,0,.278.893.939.939,0,0,0,.713.3.974.974,0,0,0,.731-.3,1.279,1.279,0,0,0,.278-.9v-7.623a1.258,1.258,0,0,0-.278-.893A.958.958,0,0,0,13738.991,17859Zm-9.5,7.527h3.934l.462,1.215c.051.129.118.287.22.516a1.81,1.81,0,0,0,.242.436.77.77,0,0,0,.278.225.825.825,0,0,0,.395.086.945.945,0,0,0,.678-.279.873.873,0,0,0,.278-.619,3.116,3.116,0,0,0-.3-1.035l-2.529-6.24c-.109-.293-.207-.545-.292-.75a2.692,2.692,0,0,0-.282-.523,1.3,1.3,0,0,0-.445-.4,1.552,1.552,0,0,0-1.357,0,1.3,1.3,0,0,0-.44.4,3.234,3.234,0,0,0-.318.633c-.1.26-.186.471-.251.65l-2.477,6.275-.026.068-.008.021c-.082.211-.146.377-.181.5a1.342,1.342,0,0,0-.067.408.828.828,0,0,0,.282.615.925.925,0,0,0,.655.27.725.725,0,0,0,.623-.256,4.24,4.24,0,0,0,.462-.979l.463-1.24Zm3.4-1.473H13730l1.431-3.986,1.458,3.984Z" transform="translate(-13694 -17652)" fill="#5d6167"/>
  </g>
</svg>
