<svg xmlns="http://www.w3.org/2000/svg" width="35.999" height="31" viewBox="0 0 35.999 31">
    <path data-name="패스 4250" d="M605.961 2.439A2.439 2.439 0 1 1 603.523 0a2.439 2.439 0 0 1 2.439 2.439" transform="translate(-570.961 1)" style="fill:#14b7cc"/>
    <path data-name="패스 4251" d="M4.877 288.619A2.817 2.817 0 0 0 0 288.383v13.848h4.877z" transform="translate(1 -272.178)" style="fill:#187bcc"/>
    <path data-name="패스 4252" d="M17 103.936a9.668 9.668 0 0 0-6.67-3.247q-.313-.018-.622-.018a9.846 9.846 0 0 0-8.636 5.175A8.711 8.711 0 0 0 0 110.119V111a2.818 2.818 0 0 1 4.877.236V109.7a3.727 3.727 0 0 1 1.549-3.057c3.879-2.725 8.073-.041 8.132 3.626A9.384 9.384 0 0 1 17 103.936" transform="translate(1 -94.793)" style="fill:#ec504b"/>
    <path data-name="패스 4253" d="M605.943 288.477a2.818 2.818 0 0 0-4.878.038v13.717h4.878z" transform="translate(-570.943 -272.18)" style="fill:#87b236"/>
    <path data-name="패스 4254" d="M302.912 124.846c-2.524 0-2.411-1.91-2.411-1.91v-12.592a9.436 9.436 0 0 1 2.438-6.407 9.787 9.787 0 0 1 16.254 2.576 8.526 8.526 0 0 1 .746 3.621v.958a2.818 2.818 0 0 0-4.878.038v-.785c0-3.707-4.227-6.449-8.134-3.7a3.727 3.727 0 0 0-1.549 3.057v13.24s.1 1.91-2.466 1.91" transform="translate(-284.94 -94.793)" style="fill:#fbaf07"/>
    <path data-name="사각형 1596" style="fill:none" d="M0 0h35.999v31H0z"/>
</svg>
