<svg width="50" height="50" viewBox="0 0 50 50" fill="none" xmlns="http://www.w3.org/2000/svg">
    <path d="M49.974 36.79c-.13.585-.221 1.17-.377 1.756-1.067 3.927-4.45 6.88-8.483 7.387a16 16 0 0 1-1.939.104c-6.765.013-13.531.013-20.296 0-4.164-.013-7.43-2.68-8.25-6.737-.39-1.925-.051-3.732.872-5.449.066-.13.144-.26.209-.377v-.052c-.508-.416-1.067-.793-1.536-1.249-3.5-3.368-4.71-7.451-3.265-12.081 1.43-4.578 4.71-7.322 9.458-8.076 5.01-.806 9.889 1.807 12.152 6.346.157.312.326.43.69.455 4.332.3 7.507 2.367 9.472 6.243.208.416.403.572.897.572 5.296-.052 9.602 3.68 10.33 8.908.014.104.053.221.092.325-.026.625-.026 1.275-.026 1.925zm-20.648 6.32v-.013c3.526 0 7.052.014 10.578 0 3.773-.013 7.025-3.212 7.143-6.983.143-4.63-3.8-8.141-8.431-7.504-1.367.182-1.796-.078-2.2-1.352-1.092-3.395-4.306-5.631-7.975-5.54-3.434.078-6.544 2.549-7.442 5.917-.273 1.014-.364 2.041-.221 3.082.143 1.118-.494 1.834-1.6 1.808-.208 0-.417-.014-.638-.014-2.745.04-5.087 2.38-5.139 5.111-.065 3.044 2.29 5.489 5.347 5.502 3.513 0 7.04-.014 10.578-.014zm-3.721-23.915c-.013-.04-.013-.091-.039-.143a2.14 2.14 0 0 0-.182-.287c-2.069-2.926-4.88-4.304-8.47-3.888-3.617.416-6.57 3.082-7.416 6.593-.846 3.499.56 7.192 3.487 9.26.533.364.962.533 1.47.026.104-.104.247-.17.377-.221.95-.351 1.9-.703 2.901-1.067.39-5.046 2.993-8.505 7.872-10.273zM.013 32.694c.247-.534.677-.872 1.184-1.145.677-.35 1.327-.754 1.978-1.131.82-.468 1.691-.273 2.107.48.417.73.17 1.561-.624 2.03-.677.403-1.366.793-2.056 1.196-1.236.715-1.886.546-2.602-.637.013-.273.013-.533.013-.793zM.013 13.616c.703-1.197 1.366-1.366 2.602-.65.677.39 1.353.767 2.017 1.157.82.48 1.08 1.313.663 2.054-.429.755-1.3.95-2.146.456-.65-.364-1.288-.755-1.939-1.106-.52-.273-.937-.611-1.197-1.144v-.767zM16.589 5.917c0-.482-.013-.976 0-1.457.026-.793.585-1.404 1.353-1.457.754-.052 1.483.482 1.535 1.262a31.11 31.11 0 0 1 .013 3.303c-.052.807-.768 1.34-1.561 1.288-.755-.052-1.314-.664-1.34-1.47-.013-.494 0-.975 0-1.47zM36.053 14.097c0 .455-.248.884-.729 1.17-.833.494-1.678.989-2.537 1.457-.768.416-1.626.156-2.03-.547-.39-.702-.143-1.534.586-1.976a80.383 80.383 0 0 1 2.537-1.457c1.015-.546 2.16.13 2.173 1.353z" fill="#474747"/>
</svg>
