<svg xmlns="http://www.w3.org/2000/svg" width="24" height="24" viewBox="0 0 24 24">
    <path d="M121.778-824a1.712 1.712 0 0 1-1.256-.522 1.712 1.712 0 0 1-.522-1.256v-12.444a1.712 1.712 0 0 1 .522-1.256 1.712 1.712 0 0 1 1.256-.522h12.444a1.712 1.712 0 0 1 1.256.522 1.712 1.712 0 0 1 .522 1.256v12.444a1.712 1.712 0 0 1-.522 1.256 1.712 1.712 0 0 1-1.256.522zm0-14.222v12.444h12.444v-12.444h-1.778V-832l-2.222-1.333L128-832v-6.222zm0 12.444z" transform="translate(-116 844)" style="fill:#949ca5"/>
    <path data-name="사각형 41375" style="fill:none" d="M0 0h24v24H0z"/>
</svg>
