<svg width="20" height="20" viewBox="0 0 20 20" fill="none" xmlns="http://www.w3.org/2000/svg">
<path d="M18.625 1H7.375C7.32572 0.999869 7.2769 1.00948 7.23134 1.02828C7.18578 1.04708 7.14439 1.07469 7.10954 1.10954C7.07469 1.14439 7.04708 1.18578 7.02828 1.23134C7.00948 1.2769 6.99987 1.32572 7 1.375V5.5H1.375C1.32572 5.49987 1.2769 5.50948 1.23134 5.52828C1.18578 5.54708 1.14439 5.57469 1.10954 5.60954C1.07469 5.64439 1.04708 5.68578 1.02828 5.73134C1.00948 5.7769 0.999869 5.82572 1 5.875V18.625C0.999869 18.6743 1.00948 18.7231 1.02828 18.7687C1.04708 18.8142 1.07469 18.8556 1.10954 18.8905C1.14439 18.9253 1.18578 18.9529 1.23134 18.9717C1.2769 18.9905 1.32572 19.0001 1.375 19H10.75V16C10.75 15.6022 10.908 15.2206 11.1893 14.9393C11.4706 14.658 11.8522 14.5 12.25 14.5H13.75C14.1478 14.5 14.5294 14.658 14.8107 14.9393C15.092 15.2206 15.25 15.6022 15.25 16V19H18.625C18.6743 19.0001 18.7231 18.9905 18.7687 18.9717C18.8142 18.9529 18.8556 18.9253 18.8905 18.8905C18.9253 18.8556 18.9529 18.8142 18.9717 18.7687C18.9905 18.7231 19.0001 18.6743 19 18.625V1.375C19.0001 1.32572 18.9905 1.2769 18.9717 1.23134C18.9529 1.18578 18.9253 1.14439 18.8905 1.10954C18.8556 1.07469 18.8142 1.04708 18.7687 1.02828C18.7231 1.00948 18.6743 0.999869 18.625 1ZM3.25 8.125C3.24987 8.07572 3.25948 8.0269 3.27828 7.98134C3.29708 7.93578 3.32469 7.89439 3.35954 7.85954C3.39439 7.82469 3.43578 7.79708 3.48134 7.77828C3.5269 7.75948 3.57572 7.74987 3.625 7.75H7V10.75H3.625C3.57572 10.7501 3.5269 10.7405 3.48134 10.7217C3.43578 10.7029 3.39439 10.6753 3.35954 10.6405C3.32469 10.6056 3.29708 10.5642 3.27828 10.5187C3.25948 10.4731 3.24987 10.4243 3.25 10.375V8.125ZM3.25 14.875V12.625C3.24987 12.5757 3.25948 12.5269 3.27828 12.4813C3.29708 12.4358 3.32469 12.3944 3.35954 12.3595C3.39439 12.3247 3.43578 12.2971 3.48134 12.2783C3.5269 12.2595 3.57572 12.2499 3.625 12.25H7V15.25H3.625C3.57572 15.2501 3.5269 15.2405 3.48134 15.2217C3.43578 15.2029 3.39439 15.1753 3.35954 15.1405C3.32469 15.1056 3.29708 15.0642 3.27828 15.0187C3.25948 14.9731 3.24987 14.9243 3.25 14.875ZM10.375 13H9.625C9.52555 13 9.43016 12.9605 9.35984 12.8902C9.28951 12.8198 9.25 12.7245 9.25 12.625C9.25 12.5255 9.28951 12.4302 9.35984 12.3598C9.43016 12.2895 9.52555 12.25 9.625 12.25H10.375C10.4745 12.25 10.5698 12.2895 10.6402 12.3598C10.7105 12.4302 10.75 12.5255 10.75 12.625C10.75 12.7245 10.7105 12.8198 10.6402 12.8902C10.5698 12.9605 10.4745 13 10.375 13ZM10.375 10.75H9.625C9.52555 10.75 9.43016 10.7105 9.35984 10.6402C9.28951 10.5698 9.25 10.4745 9.25 10.375C9.25 10.2755 9.28951 10.1802 9.35984 10.1098C9.43016 10.0395 9.52555 10 9.625 10H10.375C10.4745 10 10.5698 10.0395 10.6402 10.1098C10.7105 10.1802 10.75 10.2755 10.75 10.375C10.75 10.4745 10.7105 10.5698 10.6402 10.6402C10.5698 10.7105 10.4745 10.75 10.375 10.75ZM10.375 8.5H9.625C9.52555 8.5 9.43016 8.46049 9.35984 8.39017C9.28951 8.31984 9.25 8.22446 9.25 8.125C9.25 8.02555 9.28951 7.93016 9.35984 7.85984C9.43016 7.78951 9.52555 7.75 9.625 7.75H10.375C10.4745 7.75 10.5698 7.78951 10.6402 7.85984C10.7105 7.93016 10.75 8.02555 10.75 8.125C10.75 8.22446 10.7105 8.31984 10.6402 8.39017C10.5698 8.46049 10.4745 8.5 10.375 8.5ZM10.375 6.25H9.625C9.52555 6.25 9.43016 6.21049 9.35984 6.14017C9.28951 6.06984 9.25 5.97446 9.25 5.875C9.25 5.77555 9.28951 5.68016 9.35984 5.60984C9.43016 5.53951 9.52555 5.5 9.625 5.5H10.375C10.4745 5.5 10.5698 5.53951 10.6402 5.60984C10.7105 5.68016 10.75 5.77555 10.75 5.875C10.75 5.97446 10.7105 6.06984 10.6402 6.14017C10.5698 6.21049 10.4745 6.25 10.375 6.25ZM10.375 4H9.625C9.52555 4 9.43016 3.96049 9.35984 3.89017C9.28951 3.81984 9.25 3.72446 9.25 3.625C9.25 3.52555 9.28951 3.43016 9.35984 3.35984C9.43016 3.28951 9.52555 3.25 9.625 3.25H10.375C10.4745 3.25 10.5698 3.28951 10.6402 3.35984C10.7105 3.43016 10.75 3.52555 10.75 3.625C10.75 3.72446 10.7105 3.81984 10.6402 3.89017C10.5698 3.96049 10.4745 4 10.375 4ZM13.375 13H12.625C12.5255 13 12.4302 12.9605 12.3598 12.8902C12.2895 12.8198 12.25 12.7245 12.25 12.625C12.25 12.5255 12.2895 12.4302 12.3598 12.3598C12.4302 12.2895 12.5255 12.25 12.625 12.25H13.375C13.4745 12.25 13.5698 12.2895 13.6402 12.3598C13.7105 12.4302 13.75 12.5255 13.75 12.625C13.75 12.7245 13.7105 12.8198 13.6402 12.8902C13.5698 12.9605 13.4745 13 13.375 13ZM13.375 10.75H12.625C12.5255 10.75 12.4302 10.7105 12.3598 10.6402C12.2895 10.5698 12.25 10.4745 12.25 10.375C12.25 10.2755 12.2895 10.1802 12.3598 10.1098C12.4302 10.0395 12.5255 10 12.625 10H13.375C13.4745 10 13.5698 10.0395 13.6402 10.1098C13.7105 10.1802 13.75 10.2755 13.75 10.375C13.75 10.4745 13.7105 10.5698 13.6402 10.6402C13.5698 10.7105 13.4745 10.75 13.375 10.75ZM13.375 8.5H12.625C12.5255 8.5 12.4302 8.46049 12.3598 8.39017C12.2895 8.31984 12.25 8.22446 12.25 8.125C12.25 8.02555 12.2895 7.93016 12.3598 7.85984C12.4302 7.78951 12.5255 7.75 12.625 7.75H13.375C13.4745 7.75 13.5698 7.78951 13.6402 7.85984C13.7105 7.93016 13.75 8.02555 13.75 8.125C13.75 8.22446 13.7105 8.31984 13.6402 8.39017C13.5698 8.46049 13.4745 8.5 13.375 8.5ZM13.375 6.25H12.625C12.5255 6.25 12.4302 6.21049 12.3598 6.14017C12.2895 6.06984 12.25 5.97446 12.25 5.875C12.25 5.77555 12.2895 5.68016 12.3598 5.60984C12.4302 5.53951 12.5255 5.5 12.625 5.5H13.375C13.4745 5.5 13.5698 5.53951 13.6402 5.60984C13.7105 5.68016 13.75 5.77555 13.75 5.875C13.75 5.97446 13.7105 6.06984 13.6402 6.14017C13.5698 6.21049 13.4745 6.25 13.375 6.25ZM13.375 4H12.625C12.5255 4 12.4302 3.96049 12.3598 3.89017C12.2895 3.81984 12.25 3.72446 12.25 3.625C12.25 3.52555 12.2895 3.43016 12.3598 3.35984C12.4302 3.28951 12.5255 3.25 12.625 3.25H13.375C13.4745 3.25 13.5698 3.28951 13.6402 3.35984C13.7105 3.43016 13.75 3.52555 13.75 3.625C13.75 3.72446 13.7105 3.81984 13.6402 3.89017C13.5698 3.96049 13.4745 4 13.375 4ZM16.375 13H15.625C15.5255 13 15.4302 12.9605 15.3598 12.8902C15.2895 12.8198 15.25 12.7245 15.25 12.625C15.25 12.5255 15.2895 12.4302 15.3598 12.3598C15.4302 12.2895 15.5255 12.25 15.625 12.25H16.375C16.4745 12.25 16.5698 12.2895 16.6402 12.3598C16.7105 12.4302 16.75 12.5255 16.75 12.625C16.75 12.7245 16.7105 12.8198 16.6402 12.8902C16.5698 12.9605 16.4745 13 16.375 13ZM16.375 10.75H15.625C15.5255 10.75 15.4302 10.7105 15.3598 10.6402C15.2895 10.5698 15.25 10.4745 15.25 10.375C15.25 10.2755 15.2895 10.1802 15.3598 10.1098C15.4302 10.0395 15.5255 10 15.625 10H16.375C16.4745 10 16.5698 10.0395 16.6402 10.1098C16.7105 10.1802 16.75 10.2755 16.75 10.375C16.75 10.4745 16.7105 10.5698 16.6402 10.6402C16.5698 10.7105 16.4745 10.75 16.375 10.75ZM16.375 8.5H15.625C15.5255 8.5 15.4302 8.46049 15.3598 8.39017C15.2895 8.31984 15.25 8.22446 15.25 8.125C15.25 8.02555 15.2895 7.93016 15.3598 7.85984C15.4302 7.78951 15.5255 7.75 15.625 7.75H16.375C16.4745 7.75 16.5698 7.78951 16.6402 7.85984C16.7105 7.93016 16.75 8.02555 16.75 8.125C16.75 8.22446 16.7105 8.31984 16.6402 8.39017C16.5698 8.46049 16.4745 8.5 16.375 8.5ZM16.375 6.25H15.625C15.5255 6.25 15.4302 6.21049 15.3598 6.14017C15.2895 6.06984 15.25 5.97446 15.25 5.875C15.25 5.77555 15.2895 5.68016 15.3598 5.60984C15.4302 5.53951 15.5255 5.5 15.625 5.5H16.375C16.4745 5.5 16.5698 5.53951 16.6402 5.60984C16.7105 5.68016 16.75 5.77555 16.75 5.875C16.75 5.97446 16.7105 6.06984 16.6402 6.14017C16.5698 6.21049 16.4745 6.25 16.375 6.25ZM16.375 4H15.625C15.5255 4 15.4302 3.96049 15.3598 3.89017C15.2895 3.81984 15.25 3.72446 15.25 3.625C15.25 3.52555 15.2895 3.43016 15.3598 3.35984C15.4302 3.28951 15.5255 3.25 15.625 3.25H16.375C16.4745 3.25 16.5698 3.28951 16.6402 3.35984C16.7105 3.43016 16.75 3.52555 16.75 3.625C16.75 3.72446 16.7105 3.81984 16.6402 3.89017C16.5698 3.96049 16.4745 4 16.375 4Z" fill="#111111"/>
</svg>
