<svg xmlns="http://www.w3.org/2000/svg" width="24" height="24" viewBox="0 0 24 24">
    <g data-name="그룹 74468">
        <g data-name="그룹 74467">
            <path data-name="패스 13468" d="m11.3 15.5-5.2 5.2a.967.967 0 0 1-1.4 0l-1.4-1.4a.967.967 0 0 1 0-1.4L13.2 8a.967.967 0 0 1 1.4 0L16 9.4a.967.967 0 0 1 0 1.4l-3 3" style="stroke:#316094;fill:none;stroke-miterlimit:10;stroke-width:2px"/>
            <path data-name="선 249" transform="translate(11.3 10.7)" style="stroke:#316094;fill:none;stroke-miterlimit:10;stroke-width:2px" d="m0 0 2.9 2.9"/>
            <g data-name="그룹 74464">
                <path data-name="패스 13469" d="M12.2 5c-2.4.4-2.8.8-3.2 3.2-.4-2.4-.8-2.8-3.2-3.2 2.4-.4 2.8-.8 3.2-3.2.4 2.4.8 2.8 3.2 3.2z" style="fill:#316094"/>
            </g>
            <g data-name="그룹 74465">
                <path data-name="패스 13470" d="M22.2 5c-2.4.4-2.8.8-3.2 3.2-.4-2.4-.8-2.8-3.2-3.2 2.4-.4 2.8-.8 3.2-3.2.4 2.4.8 2.8 3.2 3.2z" style="fill:#316094"/>
            </g>
            <g data-name="그룹 74466">
                <path data-name="패스 13471" d="M22.2 15c-2.4.4-2.8.8-3.2 3.2-.4-2.4-.8-2.8-3.2-3.2 2.4-.4 2.8-.8 3.2-3.2.4 2.4.8 2.8 3.2 3.2z" style="fill:#316094"/>
            </g>
        </g>
    </g>
</svg>
