<svg width="50" height="50" viewBox="0 0 50 50" fill="none" xmlns="http://www.w3.org/2000/svg">
    <path d="M50 14.655c-.218.54-.63.877-1.13 1.15-3.595 1.96-7.39 2.56-11.402 1.696-.141-.029-.286-.048-.466-.08 1.221 5.853-.029 11.057-4.282 15.304-4.237 4.234-9.425 5.49-15.256 4.282.116.8.26 1.59.338 2.387.343 3.544-.421 6.843-2.255 9.891-.373.62-1.417.858-2.024.505-.659-.386-.89-1.237-.53-1.96.327-.652.671-1.298.967-1.963.06-.138.003-.417-.103-.527-3.049-3.07-6.113-6.126-9.165-9.197-.203-.205-.367-.212-.591-.096-.579.292-1.167.568-1.738.877-.864.462-1.725.286-2.16-.472-.433-.755-.163-1.597.698-2.095 3.646-2.104 7.527-2.727 11.648-1.853.139.028.28.044.463.077-1.218-5.86.038-11.06 4.288-15.305 4.241-4.233 9.426-5.483 15.14-4.298-.099-1.49-.298-2.984-.282-4.478.029-2.785.851-5.371 2.294-7.751.45-.743 1.32-.958 2.03-.534.69.411.906 1.247.524 1.998-.322.636-.659 1.27-.948 1.918-.061.138-.013.421.093.527 3.058 3.084 6.133 6.155 9.213 9.217.1.1.357.144.489.09a15.8 15.8 0 0 0 1.577-.759c1.214-.674 1.889-.507 2.57.669v.78zM31.68 29.487a11.92 11.92 0 0 0 1.876-3.264c.048-.125-.061-.366-.174-.485-.617-.646-1.256-1.272-1.889-1.902-2.39-2.39-4.777-4.783-7.176-7.163-.129-.126-.39-.27-.515-.222a11.582 11.582 0 0 0-3.28 1.882c3.727 3.724 7.425 7.421 11.157 11.154zm-13.355-8.966c-.758.941-1.349 1.995-1.834 3.116-.128.296-.058.47.154.675.62.597 1.224 1.214 1.831 1.821 2.403 2.403 4.803 4.806 7.212 7.2.129.128.389.272.514.224a11.725 11.725 0 0 0 3.28-1.88L18.325 20.522zM35.133 7.98c-.023.231-.055.472-.064.713-.055 1.757.285 3.453.854 5.108.048.144.244.292.402.334.938.247 1.876.53 2.833.668.948.135 1.921.116 2.965.167a7175.156 7175.156 0 0 0-6.99-6.99zM14.872 42.01c.02-.187.058-.412.064-.637.064-1.773-.276-3.485-.848-5.156-.048-.145-.24-.299-.395-.337-.954-.25-1.908-.537-2.882-.678-.934-.135-1.895-.11-2.907-.157a4758.16 4758.16 0 0 1 6.968 6.964zm19.573-19.545c.2-2.018-.163-3.965-.806-5.87-.039-.118-.222-.237-.357-.27-1.15-.266-2.296-.574-3.46-.748-.751-.112-1.535-.022-2.287-.022a6925.49 6925.49 0 0 0 6.91 6.91zM22.318 34.46l-6.771-6.785c-.116 1.507.048 3.11.5 4.687.357 1.24.354 1.24 1.584 1.593 1.587.46 3.203.627 4.687.505z" fill="#474747"/>
</svg>
