<svg width="50" height="50" viewBox="0 0 50 50" fill="none" xmlns="http://www.w3.org/2000/svg">
    <path d="M5.44 26.58v5.16H3V18.22h3.76c3 0 5.94.44 5.94 4.18 0 3.78-3 4.18-5.92 4.18H5.44zM7.6 20.5H5.44v3.82H7.6c1.48 0 2.6-.26 2.6-1.92 0-1.56-1.12-1.9-2.6-1.9zM18.076 31.74h-2.44V18.22h2.44v13.52zM24.454 23.18h-.08v8.56h-2.38V18.22h2.84l3.38 9.64 3.46-9.64h2.7v13.52h-2.38v-8.56h-.08l-3.02 8.56h-1.38l-3.06-8.56zM42.082 20.26c-1.34 0-2.56.38-2.56 1.56 0 1.24 1.78 1.66 3.22 2.1 2.14.68 4.38 1.58 4.38 3.88 0 3.02-2.58 4.12-5.58 4.12-1.56 0-3.72-.56-4.72-1.14l.38-2.36c1.16.72 2.82 1.3 4.48 1.3 1.68 0 2.94-.5 2.94-1.76 0-1.22-1.26-1.64-2.84-2.12-2.08-.62-4.76-1.26-4.76-4.2 0-2.58 2.5-3.64 4.88-3.64 1.44 0 2.84.34 3.98.8l-.38 2.3c-.84-.4-2.16-.84-3.42-.84z" fill="#474747"/>
</svg>
