<svg width="50" height="50" viewBox="0 0 50 50" fill="none" xmlns="http://www.w3.org/2000/svg">
    <path d="M42.688 26.832V43.42c0 3.11-1.46 4.58-4.535 4.58H11.444C8.524 48 7 46.485 7 43.547V9.927c0-3.047 1.451-4.49 4.535-4.49h3.373a1.315 1.315 0 0 0 1.46-1.06 1.732 1.732 0 0 1 1.932-1.36h13.07a1.814 1.814 0 0 1 2.004 1.441 1.179 1.179 0 0 0 1.315.97h3.836c2.612 0 4.145 1.551 4.154 4.254.018 5.723.009 11.473.009 17.15zm-32.477-.109v16.325c0 1.76.108 1.868 1.813 1.868h25.358c2.059 0 2.104 0 2.104-2.067V9.492c0-.626-.28-.989-.952-.989h-4.063a.96.96 0 0 0-1.034 1.07v1.134c0 1.95-.526 2.476-2.476 2.485H19.906c-3.438 0-3.456 0-3.628-3.483 0-.843-.381-1.233-1.233-1.215h-3.039c-1.723 0-1.814.073-1.814 1.76 0 5.49.006 10.98.018 16.47zM24.894 9.991h2.965c2.476 0 2.44 0 2.413-2.467 0-.962-.372-1.343-1.324-1.324h-7.074c-2.358 0-2.476 0-2.377 2.512 0 .907.372 1.306 1.288 1.279 1.343-.028 2.721 0 4.109 0z" fill="#474747"/>
    <path d="M28.34 30.596h-3.256a1.696 1.696 0 0 1-1.814-1.515 1.579 1.579 0 0 1 1.687-1.578c2.25-.072 4.49-.072 6.739 0a1.56 1.56 0 0 1 1.668 1.597 1.714 1.714 0 0 1-1.877 1.496c-1.052.027-2.095.01-3.147 0zM28.331 37.58h-3.156c-1.052 0-1.814-.663-1.877-1.542a1.594 1.594 0 0 1 1.714-1.578c2.213-.064 4.434-.064 6.648 0a1.577 1.577 0 0 1 1.704 1.578 1.669 1.669 0 0 1-1.768 1.541h-3.265zM28.43 20.556h3.266c1.088 0 1.705.599 1.66 1.433a1.542 1.542 0 0 1-1.579 1.596h-6.856a1.506 1.506 0 0 1-1.596-1.523c-.055-.907.59-1.442 1.614-1.47 1.17-.054 2.33-.036 3.492-.036zM19.425 22.116a1.56 1.56 0 0 1-1.633 1.479 1.596 1.596 0 0 1-1.442-1.533 1.487 1.487 0 0 1 1.642-1.451 1.515 1.515 0 0 1 1.433 1.505zM19.425 29.036a1.641 1.641 0 0 1-1.497 1.533 1.596 1.596 0 0 1-1.578-1.551 1.477 1.477 0 0 1 1.479-1.515 1.55 1.55 0 0 1 1.596 1.533zM19.407 35.965a1.623 1.623 0 0 1-1.442 1.587 1.596 1.596 0 0 1-1.614-1.514 1.533 1.533 0 1 1 3.056-.073z" fill="#474747"/>
</svg>
