<svg xmlns="http://www.w3.org/2000/svg" width="24.001" height="24.001" viewBox="0 0 24.001 24.001">
    <path data-name="패스 14195" d="M15.8 45.8c-3.75.691-4.309 1.25-5 5-.691-3.75-1.25-4.309-5-5 3.75-.691 4.309-1.25 5-5 .691 3.75 1.25 4.309 5 5" transform="translate(6.2 -40.8)" style="fill:#949ca5"/>
    <path data-name="패스 14196" d="M15.8 45.8c-3.75.691-4.309 1.25-5 5-.691-3.75-1.25-4.309-5-5 3.75-.691 4.309-1.25 5-5 .691 3.75 1.25 4.309 5 5" transform="translate(6.2 -26.8)" style="fill:#949ca5"/>
    <path data-name="패스 14197" d="M19.8 47.8c-5.25.967-6.033 1.75-7 7-.967-5.25-1.75-6.033-7-7 5.25-.967 6.033-1.75 7-7 .967 5.25 1.75 6.033 7 7" transform="translate(-5.8 -35.8)" style="fill:#949ca5"/>
</svg>
