<svg xmlns="http://www.w3.org/2000/svg" width="24" height="24" viewBox="0 0 24 24">
    <defs>
        <clipPath id="eftgfy4jna">
            <path data-name="사각형 40716" style="fill:none" d="M0 0h24v24H0z"/>
        </clipPath>
    </defs>
    <g data-name="그룹 75047" style="clip-path:url(#eftgfy4jna)">
        <g data-name="그룹 75046">
            <g data-name="그룹 75045" style="clip-path:url(#eftgfy4jna)">
                <path data-name="패스 14143" d="M11.119 19.5 11 17.695a.409.409 0 0 1 .119-.316L16.6 11.9l1.783-1.783a.411.411 0 0 1 .579 0l1.922 1.923a.407.407 0 0 1 0 .577l-7.259 7.26a.4.4 0 0 1-.316.119l-1.8-.117a.411.411 0 0 1-.39-.379z" transform="translate(1 1)" style="stroke:#fff;stroke-miterlimit:10;stroke-width:2px;fill:none"/>
                <path data-name="선 302" transform="translate(16.635 12.864)" style="stroke:#fff;stroke-miterlimit:10;stroke-width:2px;fill:none" d="M2.501 2.501 0 0"/>
                <path data-name="선 303" transform="translate(6.879 9)" style="stroke:#fff;stroke-miterlimit:10;stroke-width:2px;fill:none" d="M0 .017 7.121 0"/>
                <path data-name="선 304" transform="translate(7.017 13)" style="stroke:#fff;stroke-miterlimit:10;stroke-width:2px;fill:none" d="M0 0h4.702"/>
                <path data-name="패스 14144" d="M9 21H5a1 1 0 0 1-1-1V4a1 1 0 0 1 1-1h11a1 1 0 0 1 1 1v4.222" style="stroke:#fff;stroke-miterlimit:10;stroke-width:2px;fill:none"/>
            </g>
        </g>
    </g>
</svg>
