<svg xmlns="http://www.w3.org/2000/svg" width="40" height="40" viewBox="0 0 40 40">
    <g data-name="24">
        <path data-name="24" transform="translate(7 9)" style="fill:none;opacity:.267" d="M0 0h24v24H0z"/>
        <path data-name="빼기 26" d="M10356.834 13716h-.023a.754.754 0 0 1-.672-.42l-2.612-5.371 5.473-8.209-8.208 5.477-5.371-2.612a.748.748 0 0 1-.345-1 .761.761 0 0 1 .393-.365l18.506-7.445a.747.747 0 0 1 .971.974l-7.442 18.506a.758.758 0 0 1-.67.465z" transform="translate(-10336 -13685)" style="fill:#fff;stroke:transparent;stroke-miterlimit:10"/>
    </g>
</svg>
