<svg width="50" height="50" viewBox="0 0 50 50" fill="none" xmlns="http://www.w3.org/2000/svg">
    <path d="M25.828 7c.973.324 1.373 1.016 1.297 2.022-.032.432 0 .865 0 1.276.725.194 1.438.346 2.12.584 4.486 1.546 7.557 5.806 7.611 10.541.022 2.217.01 4.433 0 6.65 0 .767.249 1.308.952 1.73 1.86 1.091 2.703 3.351 2.119 5.449-.573 2.032-2.465 3.524-4.585 3.535-6.552.011-13.104.011-19.656 0-2.119 0-4.054-1.524-4.595-3.568-.562-2.119.292-4.325 2.163-5.427.648-.39.919-.898.908-1.622-.011-2.12 0-4.239 0-6.368 0-5.785 3.87-10.39 9.568-11.407.044-.01.076-.022.163-.054 0-.422.021-.865 0-1.308-.065-1.006.324-1.698 1.297-2.022.205-.011.422-.011.638-.011zm-.335 28.544h9.644c.832 0 1.449-.465 1.654-1.222.195-.714-.108-1.427-.8-1.827-1.643-.952-2.379-2.411-2.39-4.26-.01-1.482.011-2.974-.01-4.455-.01-1.081.021-2.162-.087-3.233-.454-4.454-4.973-7.773-9.384-6.93-4.022.768-6.736 4.044-6.747 8.13 0 2.184.022 4.38-.01 6.563-.023 1.817-.768 3.244-2.369 4.206a1.997 1.997 0 0 0-.767.898c-.39 1.048.432 2.13 1.621 2.13h9.645zM16.184 7c.032.022.054.065.086.076 1.352.584 1.546 2.022.39 2.919-2.833 2.216-4.66 5.06-5.44 8.574-.215.973-1.037 1.557-1.924 1.373-.951-.195-1.47-1.049-1.243-2.065.951-4.292 3.19-7.774 6.66-10.466.216-.173.487-.27.735-.411h.736zM35.559 7c1.016.443 1.773 1.222 2.53 1.979 2.508 2.497 4.13 5.481 4.865 8.941.206.962-.292 1.795-1.21 2.011-.877.206-1.742-.357-1.947-1.319a14.49 14.49 0 0 0-2.649-5.806c-.79-1.038-1.676-1.99-2.735-2.746-1.33-.94-.855-2.692.367-2.995.022 0 .033-.043.054-.054C35.072 7 35.321 7 35.56 7z" fill="#474747"/>
    <path d="M24.855 44.193c-.822-.216-1.633-.465-2.314-1.005-1.21-.973-1.86-2.228-1.903-3.774-.022-.951.67-1.686 1.579-1.697.897-.022 1.6.66 1.654 1.59.054.983.735 1.653 1.643 1.643.898-.011 1.547-.682 1.6-1.644.055-.93.757-1.61 1.655-1.59.908.022 1.59.747 1.59 1.698-.012 2.26-1.677 4.239-3.958 4.703-.087.022-.173.055-.26.087-.421-.01-.854-.01-1.286-.01z" fill="#474747"/>
</svg>
