<svg xmlns="http://www.w3.org/2000/svg" width="24" height="24" viewBox="0 0 24 24">
    <defs>
        <clipPath id="mke398jqoa">
            <path data-name="사각형 40679" style="fill:none" d="M0 0h24v24H0z"/>
        </clipPath>
    </defs>
    <g data-name="그룹 74982" style="clip-path:url(#mke398jqoa)">
        <path data-name="패스 14112" d="M4 0h16a4 4 0 0 1 4 4v16a4 4 0 0 1-4 4H4a4 4 0 0 1-4-4V4a4 4 0 0 1 4-4" style="fill:#c3c4c8"/>
        <path data-name="패스 14113" d="M12 3.131a4.676 4.676 0 1 1-4.675 4.676A4.677 4.677 0 0 1 12 3.131" style="fill:#f0f0f0"/>
        <path data-name="패스 14114" d="M21.3 22H2.7a9.353 9.353 0 0 1 18.6 0z" style="fill:#f0f0f0"/>
    </g>
</svg>
