<svg width="50" height="50" viewBox="0 0 50 50" fill="none" xmlns="http://www.w3.org/2000/svg">
    <path d="M24.991 5a19.89 19.89 0 0 1 20.017 20.063A19.842 19.842 0 0 1 25.064 45 19.817 19.817 0 0 1 5.001 24.953 19.863 19.863 0 0 1 24.991 5zm0 3.475a16.533 16.533 0 1 0 16.607 16.588A16.561 16.561 0 0 0 24.99 8.475z" fill="#474747"/>
    <path d="M26.751 28.976v5.654c0 1.377-.693 2.216-1.732 2.216-1.04 0-1.779-.84-1.779-2.207V23.44c0-1.34.62-2.088 1.678-2.116 1.058-.027 1.824.72 1.824 2.107.027 1.851.01 3.693.01 5.544zM25.064 13.208a2.626 2.626 0 0 1 2.627 2.736 2.544 2.544 0 0 1-2.627 2.59 2.58 2.58 0 0 1-2.69-2.736 2.636 2.636 0 0 1 2.69-2.59z" fill="#474747"/>
</svg>
