<svg width="16" height="16" viewBox="0 0 16 16" fill="none" xmlns="http://www.w3.org/2000/svg">
    <path fill-rule="evenodd" clip-rule="evenodd" d="M14 9.333a.667.667 0 0 0-.667-.666h-8a2 2 0 0 1-2-2V4A.667.667 0 1 0 2 4v2.667A3.333 3.333 0 0 0 5.333 10h8A.667.667 0 0 0 14 9.333z" fill="#5B636D"/>
    <path fill-rule="evenodd" clip-rule="evenodd" d="M13.805 9.805a.667.667 0 0 0 0-.943l-2.667-2.667a.667.667 0 1 0-.943.943l2.195 2.196-2.195 2.195a.667.667 0 1 0 .943.943l2.667-2.667z" fill="#5B636D"/>
</svg>
