<svg width="10" height="14" viewBox="0 0 10 14" fill="none" xmlns="http://www.w3.org/2000/svg">
<path d="M4.55806 0.933058C4.80214 0.688981 5.19786 0.688981 5.44194 0.933058L7.94194 3.43306C8.18602 3.67714 8.18602 4.07286 7.94194 4.31694C7.69786 4.56102 7.30214 4.56102 7.05806 4.31694L5.625 2.88388V9.5C5.625 9.84518 5.34518 10.125 5 10.125C4.65482 10.125 4.375 9.84518 4.375 9.5V2.88388L2.94194 4.31694C2.69786 4.56102 2.30214 4.56102 2.05806 4.31694C1.81398 4.07286 1.81398 3.67714 2.05806 3.43306L4.55806 0.933058ZM0.625 10.125C0.970178 10.125 1.25 10.4048 1.25 10.75V12H8.75V10.75C8.75 10.4048 9.02982 10.125 9.375 10.125C9.72018 10.125 10 10.4048 10 10.75V12C10 12.6904 9.44036 13.25 8.75 13.25H1.25C0.559644 13.25 0 12.6904 0 12V10.75C0 10.4048 0.279822 10.125 0.625 10.125Z" fill="#0D0D0D"/>
</svg>
