<svg xmlns="http://www.w3.org/2000/svg" width="24" height="24" viewBox="0 0 24 24">
    <defs>
        <clipPath id="s322alua5a">
            <path data-name="사각형 40208" style="stroke:#fff;stroke-width:2px;fill:none" d="M0 0h24v24H0z"/>
        </clipPath>
        <clipPath id="5mdmisclfb">
            <path data-name="사각형 40710" style="fill:#fff" d="M0 0h6v9.776H0z"/>
        </clipPath>
    </defs>
    <path style="opacity:.2;fill:none" d="M0 0h24v24H0z"/>
    <g data-name="그룹 74067">
        <g data-name="마스크 그룹 74066" style="clip-path:url(#s322alua5a)">
            <path data-name="패스 13031" d="M23 12a11 11 0 1 0-18.468 8.06l-1.686 2.919H12.9A11.031 11.031 0 0 0 23 12z" style="stroke:#fff;stroke-width:2px;fill:none"/>
        </g>
    </g>
    <g data-name="그룹 75038">
        <g data-name="그룹 75037" transform="translate(9 7.112)" style="clip-path:url(#5mdmisclfb)">
            <path data-name="패스 14141" d="M2.327 5.059a1.178 1.178 0 0 0-.833.341 1.23 1.23 0 0 0 0 1.684 1.136 1.136 0 0 0 .833.354 1.127 1.127 0 0 0 .839-.358 1.237 1.237 0 0 0 0-1.678 1.156 1.156 0 0 0-.829-.344" transform="translate(.533 2.336)" style="fill:#fff"/>
            <path data-name="패스 14142" d="M5.613 1.294A2.687 2.687 0 0 0 4.56.342 3.25 3.25 0 0 0 3.054 0a3.226 3.226 0 0 0-1.6.371A2.631 2.631 0 0 0 .439 1.385a3.219 3.219 0 0 0-.392 1.331L0 3.344h1.579l.427-.1.042-.423a1.084 1.084 0 0 1 .152-.476.75.75 0 0 1 .3-.279 1.255 1.255 0 0 1 1.016 0 .681.681 0 0 1 .288.263.757.757 0 0 1 .1.409 1.079 1.079 0 0 1-.061.383.738.738 0 0 1-.178.269 2.693 2.693 0 0 1-.446.349 3.9 3.9 0 0 0-.744.6 2.3 2.3 0 0 0-.484.756 2.471 2.471 0 0 0-.158.9v.365h2.031v-.209a1.18 1.18 0 0 1 .051-.377.67.67 0 0 1 .17-.247 2.486 2.486 0 0 1 .477-.355 3.583 3.583 0 0 0 .743-.62 2.7 2.7 0 0 0 .515-.839A2.882 2.882 0 0 0 6 2.677a2.549 2.549 0 0 0-.386-1.383" transform="translate(0 -.001)" style="fill:#fff"/>
        </g>
    </g>
</svg>
