<svg width="50" height="50" viewBox="0 0 50 50" fill="none" xmlns="http://www.w3.org/2000/svg">
    <path d="M15.685 45.884a13.175 13.175 0 0 1-4.214-.388 10.35 10.35 0 0 1-7.383-9.516 69.6 69.6 0 0 1 .008-4.4c.05-1.458 1.425-2.36 2.605-1.685a1.804 1.804 0 0 1 .842 1.685 35.872 35.872 0 0 0 .152 5.125 6.743 6.743 0 0 0 6.465 5.715h4.214c1.24 0 1.973.666 1.998 1.685.025 1.02-.733 1.686-2.023 1.762-.818.034-1.602.017-2.664.017zM45.919 34.042a10.73 10.73 0 0 1-2.175 7.897 9.988 9.988 0 0 1-7.872 3.953h-4.214a1.794 1.794 0 0 1-1.973-1.686c0-.986.793-1.685 1.981-1.685 1.812-.084 3.633.177 5.437-.186a6.743 6.743 0 0 0 5.335-6.304v-4.299c0-1.222.683-1.955 1.686-1.972 1.003-.017 1.685.758 1.685 1.955v2.41l.11-.083zM45.919 15.962v2.529a1.715 1.715 0 1 1-3.43 0c-.043-1.332 0-2.655 0-3.987a6.818 6.818 0 0 0-6.946-6.996h-3.978a1.686 1.686 0 0 1-1.871-1.643 1.686 1.686 0 0 1 1.61-1.753c2.436-.102 4.897-.32 7.299.404a10.165 10.165 0 0 1 7.333 9.87v1.576h-.017zM4.046 15.81a11.218 11.218 0 0 1 1.626-6.903 10.114 10.114 0 0 1 8.362-4.838c1.424-.084 2.857 0 4.29 0 1.255 0 2.022.742 1.989 1.813-.034 1.07-.784 1.61-2.031 1.618-1.248.008-2.445 0-3.667 0a6.903 6.903 0 0 0-7.088 7.105v3.776A1.686 1.686 0 0 1 5.16 20.13a1.787 1.787 0 0 1-1.072-1.672 1.76 1.76 0 0 1 0-.21l-.042-2.437zM24.948 37.303a12.517 12.517 0 0 1-8.428-3.455 1.745 1.745 0 0 1-.523-2.082 1.61 1.61 0 0 1 1.568-1.028 2.182 2.182 0 0 1 1.543.792 8.724 8.724 0 0 0 10.055 1.23c.7-.393 1.353-.866 1.947-1.407.97-.843 1.938-.843 2.613-.06a1.77 1.77 0 0 1-.304 2.597 12.239 12.239 0 0 1-8.47 3.413zM27.831 23.902v2.933a2.074 2.074 0 0 1-1.281 1.99c-.674.303-1.315.657-1.998.926a1.686 1.686 0 0 1-2.124-.842 1.534 1.534 0 0 1 .616-2.141c1.29-.515 1.407-1.442 1.348-2.596-.059-1.155 0-2.242 0-3.372a1.683 1.683 0 0 1 1.686-1.803 1.736 1.736 0 0 1 1.728 1.643c.084 1.079 0 2.166 0 3.253l.025.009zM19.217 18.617v1.146a1.686 1.686 0 0 1-1.686 1.56 1.56 1.56 0 0 1-1.685-1.383 11.804 11.804 0 0 1-.043-2.528 1.686 1.686 0 0 1 1.728-1.601 1.745 1.745 0 0 1 1.686 1.77v1.045-.009zM34.161 18.584v1.146a1.6 1.6 0 0 1-1.509 1.593 1.627 1.627 0 0 1-1.846-1.298 7.318 7.318 0 0 1 0-2.807 1.688 1.688 0 0 1 3.372.152c.03.418.03.837 0 1.256l-.017-.043z" fill="#474747"/>
</svg>
