<svg width="24" height="24" viewBox="0 0 24 24" fill="none" xmlns="http://www.w3.org/2000/svg">
<path d="M15 17V18C15 19.6569 13.6569 21 12 21C10.3431 21 9 19.6569 9 18V17M15 17H9M15 17H18.5905C18.973 17 19.1652 17 19.3201 16.9478C19.616 16.848 19.8475 16.6156 19.9473 16.3198C19.9997 16.1643 19.9997 15.9715 19.9997 15.5859C19.9997 15.4172 19.9995 15.3329 19.9863 15.2524C19.9614 15.1004 19.9024 14.9563 19.8126 14.8312C19.7651 14.7651 19.7047 14.7048 19.5858 14.5858L19.1963 14.1963C19.0706 14.0706 19 13.9001 19 13.7224V10C19 6.134 15.866 2.99999 12 3C8.13401 3.00001 5.00001 6.13401 5.00001 10V13.7224C5.00001 13.9002 4.92924 14.0706 4.80357 14.1963L4.41407 14.5858C4.29478 14.7051 4.23505 14.765 4.18751 14.8312C4.09767 14.9564 4.03815 15.1004 4.0132 15.2524C4 15.3329 4.00001 15.4172 4.00001 15.586C4.00001 15.9715 4.00001 16.1642 4.05246 16.3197C4.15226 16.6156 4.3848 16.848 4.68066 16.9478C4.83556 17 5.02702 17 5.40957 17H9M18.0186 2.01367C19.3978 3.05299 20.4843 4.43177 21.1724 6.01574M5.98197 2.01367C4.60275 3.05299 3.51621 4.43177 2.82812 6.01574" stroke="black" stroke-width="2" stroke-linecap="round" stroke-linejoin="round"/>
</svg>
