<svg width="24" height="24" viewBox="0 0 24 24" fill="none" xmlns="http://www.w3.org/2000/svg">
<g clip-path="url(#clip0_1516_2605)">
<mask id="mask0_1516_2605" style="mask-type:luminance" maskUnits="userSpaceOnUse" x="0" y="0" width="24" height="24">
<path d="M24 0H0V24H24V0Z" fill="white"/>
</mask>
<g mask="url(#mask0_1516_2605)">
<path d="M12 16C14.2091 16 16 14.2091 16 12C16 9.79086 14.2091 8 12 8C9.79086 8 8 9.79086 8 12C8 14.2091 9.79086 16 12 16Z" stroke="black" stroke-width="2" stroke-linejoin="round"/>
<path d="M20 12H21" stroke="black" stroke-width="2" stroke-linecap="round"/>
<path d="M3 12H4" stroke="black" stroke-width="2" stroke-linecap="round"/>
<path d="M12 20V21" stroke="black" stroke-width="2" stroke-linecap="round"/>
<path d="M12 3V4" stroke="black" stroke-width="2" stroke-linecap="round"/>
<path d="M17.6572 17.6572L18.3643 18.3643" stroke="black" stroke-width="2" stroke-linecap="round"/>
<path d="M5.63574 5.63574L6.34284 6.34284" stroke="black" stroke-width="2" stroke-linecap="round"/>
<path d="M6.34285 17.6572L5.63574 18.3643" stroke="black" stroke-width="2" stroke-linecap="round"/>
<path d="M18.3644 5.63574L17.6572 6.34284" stroke="black" stroke-width="2" stroke-linecap="round"/>
</g>
</g>
<defs>
<clipPath id="clip0_1516_2605">
<rect width="24" height="24" fill="white"/>
</clipPath>
</defs>
</svg>
