<svg width="24" height="24" viewBox="0 0 24 24" fill="none" xmlns="http://www.w3.org/2000/svg">
<g clip-path="url(#clip0_1516_2703)">
<path d="M0 14.275C0.1875 13.8688 0.506251 13.75 0.943752 13.75C8.3125 13.7562 15.6875 13.7562 23.0563 13.75C23.4937 13.75 23.8125 13.8625 24 14.2687C24 16.8313 24 19.3937 24 21.9562C23.8438 22.375 23.5375 22.5187 23.1062 22.5187C15.7 22.5125 8.30002 22.5125 0.89375 22.5187C0.45625 22.5187 0.15625 22.375 0 21.9562C0 19.4 0 16.8375 0 14.275ZM22.5937 21.1C22.5937 20.6 22.6 20.1063 22.5875 19.6187C22.5875 19.5688 22.5 19.5125 22.45 19.4625C22.2188 19.2688 21.9625 19.1 21.7562 18.8812C21.5313 18.6437 21.35 18.3688 21.1438 18.1125C20.8688 17.7688 20.5438 17.7437 20.225 18.0562C19.9 18.375 19.5875 18.7 19.2625 19.0187C18.4 19.8688 17.2312 19.8688 16.3625 19.0187C16.05 18.7125 15.7438 18.4 15.4312 18.0938C15.1 17.7625 14.8125 17.7625 14.4813 18.0875C14.1687 18.3938 13.8625 18.7062 13.55 19.0125C12.6875 19.8688 11.5125 19.8688 10.65 19.0187C10.325 18.7 10.0125 18.375 9.6875 18.0562C9.3875 17.7625 9.0875 17.7625 8.7875 18.0625C8.4625 18.3812 8.15002 18.7062 7.82501 19.025C6.97498 19.8625 5.79374 19.8625 4.94376 19.0187C4.61875 18.7 4.30625 18.375 3.98125 18.0625C3.675 17.7688 3.38125 17.7688 3.08125 18.0625C2.8 18.3375 2.5375 18.625 2.25 18.8875C2.0375 19.0812 1.81875 19.275 1.575 19.425C1.43125 19.5125 1.375 19.5938 1.39375 19.75C1.4 19.8437 1.39375 19.9375 1.39375 20.0312C1.39375 20.3875 1.39375 20.7437 1.39375 21.1C8.48126 21.1 15.525 21.1 22.5937 21.1ZM1.4125 17.7C1.43125 17.7125 1.45 17.725 1.46875 17.7375C1.675 17.525 1.86875 17.3062 2.08125 17.1C2.95625 16.225 4.125 16.225 5.0125 17.1C5.32498 17.4063 5.63126 17.7187 5.94374 18.025C6.26251 18.3375 6.55627 18.3375 6.87499 18.0187C7.19376 17.7063 7.50624 17.3875 7.81877 17.075C8.66251 16.2437 9.8375 16.2375 10.6812 17.0625C11.0125 17.3875 11.3313 17.7187 11.6625 18.0375C11.9625 18.3313 12.2563 18.3313 12.5625 18.0375C12.8938 17.7125 13.2125 17.3812 13.5437 17.0625C14.3812 16.2437 15.5563 16.2437 16.3937 17.0625C16.7187 17.3812 17.0313 17.7063 17.3563 18.025C17.6812 18.3437 17.9688 18.35 18.2875 18.0312C18.5938 17.7312 18.8938 17.425 19.2 17.1187C20.1687 16.15 21.4562 16.2313 22.3 17.3125C22.3875 17.425 22.475 17.5312 22.5875 17.675C22.5875 16.8063 22.5875 16 22.5875 15.1875C15.525 15.1875 8.47498 15.1875 1.425 15.1875C1.4125 16.0312 1.4125 16.8625 1.4125 17.7Z" fill="black"/>
<path d="M20.5374 7.71282C20.5374 8.06908 20.3124 8.35031 19.9437 8.4128C19.5436 8.48154 19.1436 8.54404 18.7437 8.60029C17.6749 8.75029 16.9311 9.49405 16.7811 10.5628C16.7249 10.9566 16.6687 11.3503 16.5999 11.7441C16.5374 12.1191 16.2686 12.3566 15.9124 12.3566C15.5624 12.3628 15.2811 12.1316 15.2124 11.7566C15.1311 11.3191 15.0812 10.8753 15.0061 10.4378C14.8374 9.45656 14.1187 8.75658 13.1312 8.60658C12.7249 8.54404 12.3124 8.48154 11.9062 8.41904C11.5249 8.35655 11.2687 8.08156 11.2687 7.7253C11.2624 7.3628 11.5249 7.07533 11.9186 7.01279C12.3124 6.95029 12.7061 6.90032 13.0999 6.83154C14.2186 6.64405 14.8936 5.93783 15.0499 4.80656C15.0999 4.45656 15.1499 4.11281 15.1999 3.76281C15.2624 3.34406 15.5374 3.08156 15.9061 3.07531C16.2749 3.06906 16.5436 3.31906 16.6124 3.75031C16.6811 4.15656 16.7312 4.56906 16.7999 4.97533C16.9936 6.05658 17.7249 6.70655 18.8874 6.86279C19.2249 6.90656 19.5686 6.95658 19.9061 7.01279C20.2936 7.08157 20.5374 7.35032 20.5374 7.71282ZM16.9874 7.71906C16.6374 7.36904 16.2624 6.99407 15.9124 6.64405C15.5561 7.00031 15.1749 7.37533 14.8311 7.71906C15.1874 8.07532 15.5624 8.45658 15.9061 8.80031C16.2562 8.45029 16.6311 8.07532 16.9874 7.71906Z" fill="black"/>
<path d="M6.63791 4.51875C7.01289 4.51875 7.35037 4.51875 7.69415 4.51875C8.15663 4.51875 8.46916 4.8 8.4754 5.20626C8.48164 5.61877 8.15039 5.91877 7.68791 5.91877C7.34413 5.91877 7.00665 5.91877 6.63791 5.91877C6.63791 6.28126 6.63791 6.62499 6.63791 6.96248C6.63791 7.24376 6.65039 7.52499 6.62538 7.80627C6.58789 8.18749 6.26913 8.44376 5.90039 8.42499C5.53165 8.40627 5.25037 8.12499 5.24413 7.73749C5.23165 7.23123 5.23789 6.72502 5.23789 6.21248C5.23789 6.12502 5.23789 6.04376 5.23789 5.91877C4.86916 5.91877 4.51289 5.91877 4.15664 5.91877C3.83789 5.91877 3.59414 5.79373 3.45664 5.50002C3.24414 5.04373 3.56914 4.53125 4.08164 4.51875C4.45664 4.50625 4.83162 4.51875 5.22537 4.51875C5.23165 4.41875 5.23789 4.3375 5.23789 4.25C5.23789 3.75 5.23789 3.25 5.23789 2.75C5.24413 2.3125 5.53165 2 5.93164 2C6.32538 2 6.63162 2.3125 6.63791 2.75C6.64415 3.24375 6.63791 3.73125 6.63791 4.225C6.63791 4.3125 6.63791 4.39375 6.63791 4.51875Z" fill="black"/>
<path d="M11.7248 4.525C11.2811 4.525 10.9248 4.16875 10.9248 3.725C10.931 3.29375 11.2873 2.9375 11.7186 2.9375C12.1561 2.9375 12.5185 3.30625 12.5185 3.74375C12.5123 4.175 12.1561 4.525 11.7248 4.525Z" fill="black"/>
<path d="M20.5817 10.8186C20.5755 11.2624 20.2192 11.6124 19.7692 11.6061C19.3379 11.5999 18.988 11.2374 18.9942 10.8062C19.0005 10.3749 19.3567 10.0186 19.788 10.0186C20.2192 10.0124 20.5817 10.3811 20.5817 10.8186Z" fill="black"/>
<path d="M5.63145 10.788C5.63145 11.2255 5.28768 11.5755 4.85021 11.5755C4.40645 11.5817 4.04395 11.2192 4.04395 10.7818C4.04395 10.3505 4.4002 10.0005 4.83144 9.99422C5.28144 9.98798 5.63145 10.338 5.63145 10.788Z" fill="black"/>
</g>
<defs>
<clipPath id="clip0_1516_2703">
<rect width="24" height="24" fill="white"/>
</clipPath>
</defs>
</svg>
