<svg width="24" height="24" viewBox="0 0 24 24" fill="none" xmlns="http://www.w3.org/2000/svg">
<path d="M8 4H6C4.61929 4 3.5 5.11929 3.5 6.5V8.5C3.5 9.88071 4.61929 11 6 11H8C9.38071 11 10.5 9.88071 10.5 8.5V6.5C10.5 5.11929 9.38071 4 8 4Z" stroke="black" stroke-width="2"/>
<path d="M8 14H6C4.61929 14 3.5 15.1193 3.5 16.5V18.5C3.5 19.8807 4.61929 21 6 21H8C9.38071 21 10.5 19.8807 10.5 18.5V16.5C10.5 15.1193 9.38071 14 8 14Z" stroke="black" stroke-width="2"/>
<path d="M18 4H16C14.6193 4 13.5 5.11929 13.5 6.5V8.5C13.5 9.88071 14.6193 11 16 11H18C19.3807 11 20.5 9.88071 20.5 8.5V6.5C20.5 5.11929 19.3807 4 18 4Z" stroke="black" stroke-width="2"/>
<path d="M18 14H16C14.6193 14 13.5 15.1193 13.5 16.5V18.5C13.5 19.8807 14.6193 21 16 21H18C19.3807 21 20.5 19.8807 20.5 18.5V16.5C20.5 15.1193 19.3807 14 18 14Z" stroke="black" stroke-width="2"/>
</svg>
