<svg width="24" height="24" viewBox="0 0 24 24" fill="none" xmlns="http://www.w3.org/2000/svg">
<path d="M3 20L8.11092 14.8891C10.2588 12.7412 13.7412 12.7412 15.8891 14.8891L21 20M7.00012 9C8.10469 9 9.00012 8.10457 9.00012 7C9.00012 5.89543 8.10469 5 7.00012 5M7.00012 9C5.89555 9 5.00012 8.10457 5.00012 7C5.00012 5.89543 5.89555 5 7.00012 5M7.00012 9V11M7.00012 5V3M8.73218 8L10.4642 9M3.53614 5L5.26819 6M8.73218 6L10.4642 5M3.53614 9L5.26819 8" stroke="black" stroke-width="2" stroke-linecap="round" stroke-linejoin="round"/>
</svg>
