<svg width="24" height="24" viewBox="0 0 24 24" fill="none" xmlns="http://www.w3.org/2000/svg">
<g clip-path="url(#clip0_1516_2710)">
<path d="M5.7193 0.00144C5.77306 0.02928 5.8273 0.05904 5.88106 0.08496C6.29146 0.2808 6.5089 0.72192 6.40714 1.152C6.35848 1.35873 6.24101 1.54279 6.07398 1.67396C5.90696 1.80514 5.70031 1.87565 5.48794 1.87392C4.6441 1.8768 3.80074 1.87392 2.9569 1.87536C2.2585 1.8768 1.87594 2.26272 1.8745 2.96592C1.8745 3.6288 1.87594 4.2936 1.8745 4.95696C1.87258 5.50752 1.47322 5.91168 0.938496 5.91168C0.402816 5.91168 0.00345555 5.50752 0.00201555 4.95696C0.000575552 4.26096 0.00201555 3.56736 0.00201555 2.87184C0.00201555 1.46208 0.907295 0.34704 2.2921 0.04608C2.3281 0.0384 2.35882 0.01536 2.3929 0C3.5017 0.00144 4.6105 0.00144 5.7193 0.00144ZM24.0001 5.20368C23.8148 5.64048 23.5283 5.9304 23.0147 5.91168C22.7783 5.9038 22.5541 5.80511 22.3886 5.63615C22.2231 5.46719 22.1291 5.24096 22.1262 5.00448C22.1214 4.3248 22.1262 3.64608 22.1247 2.96592C22.1233 2.26272 21.7407 1.8768 21.0419 1.87536C20.2211 1.87392 19.4027 1.87536 18.5819 1.87536C18.0654 1.87536 17.6747 1.58256 17.5873 1.12896C17.4947 0.65568 17.7351 0.24816 18.2271 0.04176C18.2473 0.03216 18.2627 0.01392 18.2814 0H21.6097C21.651 0.0168 21.6913 0.0384 21.7331 0.04944C22.5611 0.23616 23.2091 0.6816 23.6204 1.42368C23.787 1.72416 23.8767 2.06688 23.9996 2.3904L24.0001 5.20368ZM24.0001 21.6096C23.8657 22.055 23.7313 22.499 23.4337 22.872C22.862 23.5944 22.1247 23.989 21.1979 23.9966C20.3156 24.0043 19.4334 23.9995 18.5497 23.9981C17.9785 23.9966 17.5763 23.6045 17.5763 23.0573C17.5782 22.5115 17.9819 22.1261 18.5574 22.1242C19.3931 22.1227 20.2292 22.1261 21.0649 22.1242C21.7331 22.1227 22.1233 21.7296 22.1247 21.0571C22.1262 20.4014 22.1247 19.7448 22.1247 19.0891C22.1247 18.5832 22.4113 18.1944 22.851 18.1022C23.3358 17.9986 23.7534 18.241 23.9598 18.7406C23.9679 18.7603 23.9862 18.7776 24.0001 18.7958V21.6096ZM19.6542 11.2402C19.6542 12.0283 19.6647 12.8179 19.6494 13.6066C19.6417 14.0395 19.3777 14.3635 18.9956 14.4806C18.374 14.6717 17.7721 14.2152 17.7707 13.5461C17.7678 12.2026 17.774 10.859 17.7707 9.516C17.7659 7.284 16.3364 5.4936 14.1635 4.9968C13.974 4.95053 13.7801 4.92478 13.5851 4.92C12.5315 4.91232 11.475 4.87536 10.4233 4.9248C8.44762 5.0184 6.69994 6.5688 6.32842 8.50896C6.26639 8.83802 6.23426 9.17203 6.23242 9.50688C6.22186 10.7635 6.22666 12.0221 6.2281 13.2792C6.2329 16.1525 8.13898 18.503 10.9633 19.009C12.9313 19.3622 14.6708 18.8194 16.1084 17.3986C16.3071 17.2027 16.5092 17.029 16.8054 17.0131C17.2263 16.9901 17.5748 17.1797 17.7462 17.5363C17.9238 17.903 17.8571 18.3024 17.5595 18.6154C16.7473 19.4759 15.7432 20.1324 14.6291 20.531C10.3417 22.0733 5.7313 19.655 4.58554 15.2458C4.44333 14.687 4.36681 14.1135 4.35754 13.537C4.32826 12.0528 4.31578 10.5677 4.36522 9.08544C4.42042 7.4232 5.10058 6.0072 6.28666 4.84704C7.53946 3.62448 9.05674 3.02304 10.8044 3.00576C11.6094 2.99808 12.4124 3.00096 13.2179 3.00432C16.2807 3.0168 18.9183 5.16048 19.5275 8.15712C19.6235 8.62752 19.6398 9.11664 19.6585 9.59904C19.6801 10.1453 19.6633 10.6925 19.6633 11.2387C19.6599 11.2402 19.6575 11.2402 19.6542 11.2402ZM3.65818 24C3.06634 24 2.87818 24.0182 2.2969 23.9381C1.01386 23.7605 0.00825555 22.5408 0.00201555 21.2482C-0.00134445 20.5138 9.55521e-05 19.7798 0.00201555 19.0459C0.00345555 18.4939 0.399936 18.0898 0.935136 18.0883C1.47322 18.0864 1.87402 18.4891 1.87594 19.0382C1.87882 19.7184 1.87402 20.3966 1.87738 21.0773C1.87882 21.7296 2.2753 22.1227 2.93242 22.1242C3.77578 22.1261 4.61962 22.1242 5.46298 22.1261C6.01834 22.1275 6.4225 22.5192 6.42538 23.0544C6.4273 23.6035 6.02458 23.9981 5.45674 24C4.99594 24.0014 4.53514 24 4.0753 24C4.07194 23.9842 3.65818 24.0168 3.65818 24Z" fill="black"/>
<path d="M11.8941 16.0928C11.2571 16.088 10.6235 15.8302 10.0926 15.3214C9.7072 14.9513 9.6808 14.3792 10.0278 13.9966C10.3782 13.6112 10.9379 13.5804 11.3526 13.9227C11.8278 14.3144 12.1782 14.3163 12.6424 13.9275C13.0542 13.5819 13.6168 13.6092 13.9686 13.9918C14.3171 14.37 14.297 14.947 13.9144 15.3166C13.3778 15.8336 12.7379 16.0942 11.8941 16.0928ZM10.7978 10.5555C10.7762 10.7484 10.7776 10.9476 10.7267 11.1324C10.6077 11.5611 10.1589 11.8496 9.74128 11.7924C9.2584 11.7252 8.92192 11.3763 8.90032 10.9073C8.88939 10.6658 8.89003 10.4239 8.90224 10.1825C8.92528 9.69339 9.33088 9.30939 9.82144 9.30027C10.3058 9.29067 10.7421 9.69051 10.7742 10.1825C10.7824 10.3073 10.7762 10.4321 10.7762 10.5569C10.7853 10.554 10.7915 10.5555 10.7978 10.5555ZM15.099 10.5449C15.099 10.662 15.1038 10.7796 15.099 10.8968C15.0892 11.137 14.9878 11.3644 14.8158 11.5324C14.6438 11.7005 14.414 11.7964 14.1736 11.8006C13.6773 11.8068 13.2424 11.395 13.2232 10.892C13.2155 10.6659 13.2155 10.4397 13.2232 10.2137C13.2405 9.70923 13.6696 9.29691 14.1674 9.29883C14.4079 9.30043 14.6386 9.39428 14.812 9.56103C14.9854 9.72778 15.0881 9.95471 15.099 10.195C15.1053 10.3102 15.099 10.4273 15.099 10.5449Z" fill="black"/>
</g>
<defs>
<clipPath id="clip0_1516_2710">
<rect width="24" height="24" fill="white"/>
</clipPath>
</defs>
</svg>
