<svg width="24" height="24" viewBox="0 0 24 24" fill="none" xmlns="http://www.w3.org/2000/svg">
<path d="M2 16.5892C2 16.5892 2.87335 15.581 4.28614 14.9767C7.61322 13.5536 11.4823 17.488 14.5662 14.4582C17.65 11.4284 14.7069 7.73889 15.5944 4.59534C16.0646 2.92977 17.1364 2 17.1364 2M6.67194 22C6.67194 22 7.72093 21.1801 8.40289 19.7921C10.0089 16.5236 6.35165 12.3878 9.5313 9.4607C12.711 6.53362 16.1817 9.72146 19.3422 9.01517C21.0167 8.64095 22 7.61626 22 7.61626M4.08744 15.7998L8.19953 19.9524M16.4237 4.38033L20.5358 8.53287M9.02174 10.6091L13.1338 14.7617M11.0778 8.53287L15.1899 12.6854" stroke="black" stroke-width="1.8" stroke-linecap="round"/>
</svg>
