<svg width="24" height="24" viewBox="0 0 24 24" fill="none" xmlns="http://www.w3.org/2000/svg">
<path d="M21 13V17C21 19.7614 18.7614 22 16 22H8C5.23858 22 3 19.7614 3 17V9C3 6.23858 5.23858 4 8 4H12" stroke="black" stroke-width="2" stroke-linecap="round"/>
<path d="M17.1724 3.28576C17.9528 2.50412 19.2187 2.50364 19.9997 3.28469L21.489 4.77394C22.2634 5.54833 22.2714 6.80197 21.507 7.58624L14.447 14.8299C13.8826 15.409 13.1085 15.7355 12.3001 15.7355L10.6029 15.7354C9.75008 15.7354 9.069 15.0244 9.10487 14.1717L9.17897 12.4102C9.21056 11.659 9.52279 10.947 10.0539 10.4151L17.1724 3.28576Z" stroke="black" stroke-width="2"/>
<path d="M15.7295 4.86816L19.7435 8.88215" stroke="black" stroke-width="2" stroke-linecap="round" stroke-linejoin="round"/>
</svg>
