<svg width="24" height="24" viewBox="0 0 24 24" fill="none" xmlns="http://www.w3.org/2000/svg">
<g clip-path="url(#clip0_1516_2470)">
<mask id="mask0_1516_2470" style="mask-type:luminance" maskUnits="userSpaceOnUse" x="0" y="0" width="24" height="24">
<path d="M24 0H0V24H24V0Z" fill="white"/>
</mask>
<g mask="url(#mask0_1516_2470)">
<path d="M8 6.14239V4.4709C8 3.30611 8 2.72371 8.34942 2.36186C8.69883 2 9.26121 2 10.386 2H13.614C14.7388 2 15.3012 2 15.6506 2.36186C16 2.72371 16 3.30611 16 4.4709V6.14239" stroke="black" stroke-width="2"/>
<path d="M18.1141 15.5239C17.9652 16.8718 17.8606 17.8081 17.7068 18.5252C17.5568 19.2239 17.3792 19.6125 17.1447 19.8993C16.9482 20.1397 16.7155 20.348 16.4551 20.517C16.1443 20.7186 15.7385 20.8525 15.0275 20.9248C14.2979 20.999 13.3558 21.0002 11.9997 21.0002C10.6435 21.0002 9.70138 20.999 8.97178 20.9248C8.2608 20.8525 7.85502 20.7186 7.54421 20.517C7.28377 20.348 7.05112 20.1397 6.8546 19.8993C6.62006 19.6125 6.44245 19.2239 6.29254 18.5252C6.13869 17.8081 6.03407 16.8718 5.88519 15.5239L4.88086 6.43066H19.1184L18.1141 15.5239Z" stroke="black" stroke-width="2"/>
<path d="M3 6.12207H21" stroke="black" stroke-width="2" stroke-linecap="round"/>
</g>
</g>
<defs>
<clipPath id="clip0_1516_2470">
<rect width="24" height="24" fill="white"/>
</clipPath>
</defs>
</svg>
