<svg width="204" height="174" viewBox="0 0 204 174" fill="none" xmlns="http://www.w3.org/2000/svg">
<path d="M0 104.093C1.59001 100.648 4.29303 99.6406 8.00305 99.6406C70.4904 99.6936 133.031 99.6936 195.518 99.6406C199.228 99.6406 201.931 100.595 203.521 104.04C203.521 125.77 203.521 147.5 203.521 169.23C202.196 172.781 199.599 174 195.942 174C133.137 173.947 70.3844 173.947 7.57904 174C3.86902 174 1.32501 172.781 0 169.23C0 147.553 0 125.823 0 104.093ZM191.596 161.969C191.596 157.729 191.649 153.542 191.543 149.408C191.543 148.984 190.801 148.507 190.377 148.083C188.416 146.44 186.243 145.009 184.494 143.154C182.586 141.14 181.049 138.808 179.3 136.635C176.968 133.72 174.212 133.508 171.509 136.158C168.753 138.861 166.103 141.617 163.347 144.32C156.033 151.528 146.122 151.528 138.755 144.32C136.105 141.723 133.508 139.073 130.858 136.476C128.049 133.667 125.611 133.667 122.802 136.423C120.152 139.02 117.555 141.67 114.905 144.267C107.591 151.528 97.6266 151.528 90.3125 144.32C87.5565 141.617 84.9065 138.861 82.1505 136.158C79.6065 133.667 77.0624 133.667 74.5184 136.211C71.7624 138.914 69.1124 141.67 66.3564 144.373C59.1483 151.475 49.1313 151.475 41.9232 144.32C39.1672 141.617 36.5172 138.861 33.7612 136.211C31.1642 133.72 28.6732 133.72 26.1292 136.211C23.7441 138.543 21.5181 140.981 19.0801 143.207C17.2781 144.85 15.4231 146.493 13.3561 147.765C12.1371 148.507 11.6601 149.196 11.8191 150.521C11.8721 151.316 11.8191 152.111 11.8191 152.906C11.8191 155.927 11.8191 158.948 11.8191 161.969C71.9214 161.969 131.653 161.969 191.596 161.969ZM11.9781 133.137C12.1371 133.243 12.2961 133.349 12.4551 133.455C14.2041 131.653 15.8471 129.798 17.6491 128.049C25.0691 120.629 34.9802 120.629 42.5062 128.049C45.1563 130.646 47.7533 133.296 50.4033 135.893C53.1063 138.543 55.5973 138.543 58.3003 135.84C61.0034 133.19 63.6534 130.487 66.3034 127.837C73.4584 120.788 83.4225 120.735 90.5775 127.731C93.3865 130.487 96.0896 133.296 98.8986 135.999C101.443 138.49 103.934 138.49 106.531 135.999C109.34 133.243 112.043 130.434 114.852 127.731C121.954 120.788 131.918 120.788 139.02 127.731C141.776 130.434 144.426 133.19 147.182 135.893C149.938 138.596 152.376 138.649 155.079 135.946C157.676 133.402 160.22 130.805 162.817 128.208C171.032 119.993 181.95 120.682 189.105 129.851C189.847 130.805 190.589 131.706 191.543 132.925C191.543 125.558 191.543 118.721 191.543 111.831C131.653 111.831 71.8684 111.831 12.0841 111.831C11.9781 118.986 11.9781 126.035 11.9781 133.137Z" fill="#949CA5"/>
<path d="M174.159 48.4424C174.159 51.4635 172.251 53.8485 169.124 54.3785C165.732 54.9615 162.34 55.4915 158.948 55.9685C149.885 57.2405 143.578 63.5475 142.306 72.6106C141.829 75.9496 141.352 79.2886 140.769 82.6276C140.239 85.8076 137.96 87.8217 134.939 87.8217C131.971 87.8747 129.586 85.9137 129.003 82.7336C128.314 79.0236 127.89 75.2606 127.254 71.5506C125.823 63.2295 119.728 57.2935 111.354 56.0215C107.909 55.4915 104.411 54.9615 100.966 54.4315C97.7325 53.9015 95.5595 51.5695 95.5595 48.5484C95.5065 45.4744 97.7325 43.0364 101.072 42.5064C104.411 41.9764 107.75 41.5524 111.089 40.9694C120.576 39.3794 126.3 33.3903 127.625 23.7973C128.049 20.8293 128.473 17.9143 128.897 14.9462C129.427 11.3952 131.759 9.16921 134.886 9.11621C138.013 9.0632 140.292 11.1832 140.875 14.8402C141.458 18.2853 141.882 21.7833 142.465 25.2283C144.108 34.3973 150.309 39.9094 160.167 41.2344C163.029 41.6054 165.944 42.0294 168.806 42.5064C172.092 43.0894 174.159 45.3684 174.159 48.4424ZM144.055 48.4954C141.087 45.5274 137.907 42.3474 134.939 39.3794C131.918 42.4004 128.685 45.5804 125.77 48.4954C128.791 51.5165 131.971 54.7495 134.886 57.6645C137.854 54.6965 141.034 51.5165 144.055 48.4954Z" fill="#949CA5"/>
<path d="M56.2865 21.3591C59.4665 21.3591 62.3285 21.3591 65.2435 21.3591C69.1655 21.3591 71.8156 23.7441 71.8686 27.1892C71.9216 30.6872 69.1125 33.2312 65.1905 33.2312C62.2755 33.2312 59.4135 33.2312 56.2865 33.2312C56.2865 36.3052 56.2865 39.2202 56.2865 42.0822C56.2865 44.4673 56.3925 46.8523 56.1805 49.2373C55.8625 52.4703 53.1594 54.6433 50.0324 54.4843C46.9054 54.3253 44.5204 51.9403 44.4674 48.6543C44.3614 44.3613 44.4144 40.0682 44.4144 35.7222C44.4144 34.9802 44.4144 34.2912 44.4144 33.2312C41.2874 33.2312 38.2664 33.2312 35.2453 33.2312C32.5423 33.2312 30.4753 32.1712 29.3093 29.6802C27.5073 25.8111 30.2633 21.4651 34.6093 21.3591C37.7894 21.2531 40.9694 21.3591 44.3084 21.3591C44.3614 20.5111 44.4144 19.8221 44.4144 19.0801C44.4144 14.8401 44.4144 10.6001 44.4144 6.36004C44.4674 2.65002 46.9054 0 50.2974 0C53.6364 0 56.2335 2.65002 56.2865 6.36004C56.3395 10.5471 56.2865 14.6811 56.2865 18.8681C56.2865 19.6101 56.2865 20.2991 56.2865 21.3591Z" fill="#949CA5"/>
<path d="M99.4286 21.412C95.6656 21.412 92.6445 18.391 92.6445 14.628C92.6975 10.971 95.7185 7.94995 99.3756 7.94995C103.086 7.94995 106.16 11.077 106.16 14.787C106.107 18.444 103.086 21.412 99.4286 21.412Z" fill="#949CA5"/>
<path d="M174.53 74.7835C174.477 78.5465 171.456 81.5145 167.64 81.4615C163.983 81.4085 161.015 78.3345 161.068 74.6775C161.121 71.0205 164.142 67.9994 167.799 67.9994C171.456 67.9464 174.53 71.0735 174.53 74.7835Z" fill="#949CA5"/>
<path d="M47.7533 74.5184C47.7533 78.2284 44.8383 81.1964 41.1283 81.1964C37.3653 81.2494 34.2913 78.1754 34.2913 74.4654C34.2913 70.8083 37.3123 67.8403 40.9693 67.7873C44.7853 67.7343 47.7533 70.7023 47.7533 74.5184Z" fill="#949CA5"/>
</svg>
